<?xml version="1.0" encoding="UTF-8" standalone="no"?>
<!-- Created with Inkscape (http://www.inkscape.org/) -->

<svg
   xmlns:dc="http://purl.org/dc/elements/1.1/"
   xmlns:cc="http://creativecommons.org/ns#"
   xmlns:rdf="http://www.w3.org/1999/02/22-rdf-syntax-ns#"
   xmlns:svg="http://www.w3.org/2000/svg"
   xmlns="http://www.w3.org/2000/svg"
   xmlns:sodipodi="http://sodipodi.sourceforge.net/DTD/sodipodi-0.dtd"
   xmlns:inkscape="http://www.inkscape.org/namespaces/inkscape"
   version="1.1"
   id="svg15661"
   xml:space="preserve"
   width="666.66669"
   height="666.66669"
   viewBox="0 0 666.66669 666.66669"
   sodipodi:docname="juneteenthfreedomdayheart.svg"
   inkscape:version="0.91 r13725"><metadata
     id="metadata15667"><rdf:RDF><cc:Work
         rdf:about=""><dc:format>image/svg+xml</dc:format><dc:type
           rdf:resource="http://purl.org/dc/dcmitype/StillImage" /><dc:title></dc:title></cc:Work></rdf:RDF></metadata><defs
     id="defs15665"><clipPath
       clipPathUnits="userSpaceOnUse"
       id="clipPath15677"><path
         d="M 0,500 H 500 V 0 H 0 Z"
         id="path15675"
         inkscape:connector-curvature="0" /></clipPath><inkscape:path-effect
       back_thickness="0.25"
       front_thickness="2"
       stroke_width_bottom="2"
       stroke_width_top="1"
       fat_output="true"
       bottom_smth_variation="0;1"
       top_smth_variation="0;1"
       scale_tb="1.8"
       scale_tf="1"
       scale_bb="0.9"
       scale_bf="0.9"
       top_tgt_variation="2;1"
       bottom_tgt_variation="2;1"
       top_edge_variation="2;1"
       bottom_edge_variation="200;1"
       bender="380.59718,611.23915 , 0,-4.5028825"
       do_bend="true"
       growth="0"
       dist_rdm="10;1"
       direction="388.40608,611.23915 , 0,-160.36163"
       is_visible="true"
       id="path-effect3105"
       effect="rough_hatches" /><inkscape:path-effect
       scale_y_rel="false"
       prop_scale="1"
       strokepath="m 48.797157,573.96307 706.006553,0"
       endpoint_spacing_variation="0;1"
       endpoint_edge_variation="0;1"
       startpoint_spacing_variation="0;1"
       startpoint_edge_variation="0;1"
       count="5"
       is_visible="true"
       id="path-effect3101"
       effect="curvestitching" /><inkscape:path-effect
       vertical="false"
       scale_y_rel="false"
       prop_scale="1"
       bendpath="m 380.59718,931.96239 0,-641.44648"
       is_visible="true"
       id="path-effect3089"
       effect="bend_path" /><inkscape:path-effect
       is_visible="true"
       id="path-effect3085"
       effect="spiro" /><inkscape:path-effect
       tgtlength_rdm="0.3;1"
       tgtlength="100"
       tgtscale="10"
       tgt_places_rdmness="1;1"
       nbtangents="5"
       tremble_frequency="1"
       tremble_size="5;1"
       parallel_offset="5;1"
       ends_tolerance="0.1;1"
       strokeoverlap_rdm="0.3;1"
       strokeoverlap="0.3"
       strokelength_rdm="0.3;1"
       strokelength="100"
       nbiter_approxstrokes="4"
       is_visible="true"
       id="path-effect3071"
       effect="sketch" /><inkscape:path-effect
       tgtlength_rdm="0.3;1"
       tgtlength="100"
       tgtscale="10"
       tgt_places_rdmness="1;1"
       nbtangents="5"
       tremble_frequency="1"
       tremble_size="5;1"
       parallel_offset="5;1"
       ends_tolerance="0.1;1"
       strokeoverlap_rdm="0.3;1"
       strokeoverlap="0.3"
       strokelength_rdm="0.3;1"
       strokelength="100"
       nbiter_approxstrokes="5"
       is_visible="true"
       id="path-effect3067"
       effect="sketch" /><inkscape:path-effect
       back_thickness="0.25"
       front_thickness="1"
       stroke_width_bottom="1"
       stroke_width_top="1"
       fat_output="true"
       bottom_smth_variation="0;1"
       top_smth_variation="0;1"
       scale_tb="1"
       scale_tf="1"
       scale_bb="1"
       scale_bf="1"
       top_tgt_variation="0;1"
       bottom_tgt_variation="0;1"
       top_edge_variation="65.033935;1"
       bottom_edge_variation="65.033935;1"
       bender="353.87165,623.4276 , 1.0053169,4.8978912"
       do_bend="true"
       growth="0"
       dist_rdm="75;1"
       direction="358.76954,622.42229 , 35.802454,174.42911"
       is_visible="true"
       id="path-effect3065"
       effect="rough_hatches" /><inkscape:path-effect
       is_visible="true"
       id="path-effect3063"
       effect="spiro" /><inkscape:path-effect
       effect="spiro"
       id="path-effect3037"
       is_visible="true" /><inkscape:path-effect
       is_visible="true"
       id="path-effect2987"
       effect="spiro" /></defs><sodipodi:namedview
     pagecolor="#ffffff"
     bordercolor="#666666"
     borderopacity="1"
     objecttolerance="10"
     gridtolerance="10"
     guidetolerance="10"
     inkscape:pageopacity="0"
     inkscape:pageshadow="2"
     inkscape:window-width="1916"
     inkscape:window-height="1035"
     id="namedview15663"
     showgrid="false"
     inkscape:zoom="0.56081513"
     inkscape:cx="128.93561"
     inkscape:cy="49.791655"
     inkscape:window-x="4"
     inkscape:window-y="1"
     inkscape:window-maximized="1"
     inkscape:current-layer="text26323" /><g
     id="g15669"
     inkscape:groupmode="layer"
     inkscape:label="I-love-France-publicdomainvectors.org"
     transform="matrix(1.3333333,0,0,-1.3333333,0,666.66667)"><g
       id="g15671"><g
         id="g15673"
         clip-path="url(#clipPath15677)"><path
           d="m 452.233,371.431 c 0.671,0.41 1.043,1.127 1.043,1.861 0,0.378 -0.097,0.761 -0.304,1.109 -0.608,1.025 -1.928,1.37 -2.96,0.774 0,0 -59.417,-34.304 -108.718,-62.768 40.109,24.155 92.921,55.96 92.921,55.96 0.678,0.408 1.054,1.128 1.054,1.866 0,0.376 -0.098,0.757 -0.303,1.104 -0.607,1.029 -1.929,1.376 -2.962,0.78 0,0 -59.889,-34.577 -112.464,-64.93 57.576,34.787 120.774,72.97 120.774,72.97 0.677,0.409 1.053,1.128 1.053,1.865 0,0.376 -0.098,0.758 -0.303,1.105 -0.608,1.028 -1.928,1.375 -2.962,0.778 0,0 -58.106,-33.546 -126.141,-72.826 l 0,-25.132 c 70.759,43.122 140.272,85.484 140.272,85.484"
           style="fill:#62a654;fill-opacity:1;fill-rule:nonzero;stroke:none"
           id="path15681"
           inkscape:connector-curvature="0" /><path
           d="m 409.335,401.496 c 0.669,0.41 1.04,1.126 1.04,1.858 0,0.379 -0.099,0.762 -0.306,1.111 -0.608,1.023 -1.927,1.368 -2.959,0.773 0,0 -41.762,-24.112 -95.149,-54.935 l 0,-8.394 c 54.082,33.095 97.374,59.587 97.374,59.587"
           style="fill:#62a654;fill-opacity:1;fill-rule:nonzero;stroke:none"
           id="path15683"
           inkscape:connector-curvature="0" /><path
           d="m 407.969,411.218 c 0.671,0.41 1.042,1.125 1.042,1.86 0,0.378 -0.099,0.76 -0.306,1.109 -0.608,1.024 -1.928,1.369 -2.959,0.773 0,0 -41.374,-23.886 -93.785,-54.147 l 0,-8.28 c 53.821,32.898 96.008,58.685 96.008,58.685"
           style="fill:#62a654;fill-opacity:1;fill-rule:nonzero;stroke:none"
           id="path15685"
           inkscape:connector-curvature="0" /><path
           d="m 391.492,410.978 c 0.674,0.41 1.047,1.126 1.047,1.863 0,0.377 -0.099,0.759 -0.304,1.107 -0.608,1.026 -1.928,1.372 -2.962,0.775 0,0 -32.86,-18.972 -77.312,-44.637 l 0,-7.43 c 44.793,27.217 79.531,48.322 79.531,48.322"
           style="fill:#62a654;fill-opacity:1;fill-rule:nonzero;stroke:none"
           id="path15687"
           inkscape:connector-curvature="0" /><path
           d="m 430.705,403.481 c 0.671,0.41 1.04,1.124 1.04,1.858 0,0.379 -0.098,0.762 -0.306,1.111 -0.608,1.023 -1.927,1.367 -2.959,0.771 0,0 -52.659,-30.402 -116.519,-67.272 l 0,-9.168 c 64.667,39.592 118.744,72.7 118.744,72.7"
           style="fill:#62a654;fill-opacity:1;fill-rule:nonzero;stroke:none"
           id="path15689"
           inkscape:connector-curvature="0" /><path
           d="m 382.952,415.978 c 0.673,0.41 1.044,1.126 1.044,1.86 0,0.378 -0.098,0.761 -0.305,1.108 -0.608,1.025 -1.928,1.371 -2.961,0.775 0,0 -42.751,-24.683 -64.927,-37.486 22.22,13.315 64.791,38.823 64.791,38.823 0.68,0.407 1.057,1.129 1.057,1.868 0,0.375 -0.096,0.756 -0.299,1.101 -0.608,1.031 -1.93,1.38 -2.965,0.782 0,0 -27.593,-15.93 -66.426,-38.351 l 0,-13.779 c 41.023,25.022 70.991,43.299 70.991,43.299"
           style="fill:#62a654;fill-opacity:1;fill-rule:nonzero;stroke:none"
           id="path15691"
           inkscape:connector-curvature="0" /><path
           d="m 456.779,342.709 c 0,0 -61.987,-35.788 -120.068,-69.321 50.785,30.816 107.169,65.031 107.169,65.031 0.675,0.409 1.048,1.126 1.048,1.863 0,0.376 -0.098,0.759 -0.303,1.106 -0.608,1.027 -1.929,1.373 -2.962,0.776 0,0 -62.17,-35.893 -129.702,-74.881 l 0,-13.211 c 2.188,1.264 4.38,2.529 6.57,3.793 -2.191,-1.344 -4.383,-2.689 -6.57,-4.031 l 0,-16.803 c 1.971,1.137 3.942,2.278 5.915,3.416 -1.973,-1.213 -3.944,-2.424 -5.915,-3.634 l 0,-32.022 c 6.921,3.994 13.93,8.041 20.937,12.088 -7.019,-4.367 -14.037,-8.734 -20.937,-13.029 l 0,-16.873 c 10.927,6.308 22.283,12.865 33.608,19.404 -11.395,-7.19 -22.795,-14.383 -33.608,-21.205 l 0,-8.594 c 10.198,5.889 20.928,12.084 31.655,18.277 -10.828,-6.871 -21.702,-13.771 -31.655,-20.088 l 0,-7.443 c 14.753,8.518 31.928,18.432 48.551,28.031 -22.382,-14.908 -44.971,-29.955 -48.551,-32.339 l 0,-4.188 c 0.577,-0.201 1.231,-0.166 1.801,0.162 l 87.361,50.436 c 1.042,0.599 1.398,1.931 0.797,2.972 -0.6,1.041 -1.932,1.399 -2.973,0.797 0,0 -15.976,-9.222 -28.514,-16.461 24.42,16.266 49.085,32.696 49.085,32.696 0.628,0.418 0.97,1.107 0.97,1.812 0,0.393 -0.105,0.789 -0.328,1.147 -0.62,0.998 -1.919,1.324 -2.937,0.736 0,0 -30.107,-17.383 -57.382,-33.131 36.723,23.303 73.993,46.951 73.993,46.951 0.653,0.414 1.011,1.119 1.011,1.84 0,0.385 -0.102,0.774 -0.315,1.125 -0.614,1.015 -1.925,1.351 -2.95,0.758 0,0 -45.107,-26.043 -90.12,-52.031 50.076,31.591 100.261,63.253 100.261,63.253 0.654,0.414 1.014,1.12 1.014,1.842 0,0.383 -0.101,0.773 -0.313,1.123 -0.613,1.015 -1.926,1.354 -2.951,0.761 0,0 -40.563,-23.419 -74.925,-43.259 35.991,22.139 77.415,47.617 77.415,47.617 0.667,0.411 1.036,1.125 1.036,1.856 0,0.379 -0.1,0.763 -0.308,1.112 -0.609,1.023 -1.925,1.366 -2.957,0.771 0,0 -50.454,-29.129 -100.502,-58.026 53.903,33.543 107.841,67.107 107.841,67.107 0.662,0.412 1.028,1.122 1.028,1.849 0,0.381 -0.101,0.767 -0.311,1.117 -0.61,1.02 -1.925,1.36 -2.954,0.767 0,0 -41.774,-24.119 -72.588,-41.908 35.125,21.365 79.602,48.417 79.602,48.417 0.673,0.41 1.046,1.126 1.046,1.861 0,0.378 -0.098,0.76 -0.305,1.108 -0.608,1.026 -1.929,1.371 -2.96,0.776 0,0 -45.324,-26.167 -81.01,-46.771 40.936,24.888 89.598,54.473 89.598,54.473 0.674,0.409 1.047,1.126 1.047,1.862 0,0.377 -0.099,0.759 -0.305,1.108 -0.607,1.025 -1.928,1.371 -2.96,0.775 0,0 -45.944,-26.525 -78.855,-45.527 30.275,18.304 74.081,44.787 74.081,44.787 0.675,0.409 1.05,1.128 1.05,1.864 0,0.377 -0.097,0.758 -0.302,1.106 -0.608,1.027 -1.929,1.374 -2.962,0.777 0,0 -63.115,-36.438 -125.983,-72.735 66.238,40.701 132.489,81.411 132.489,81.411 0.668,0.411 1.037,1.124 1.037,1.856 0,0.379 -0.099,0.763 -0.308,1.112 -0.608,1.023 -1.926,1.366 -2.957,0.771 0,0 -45.271,-26.137 -76.145,-43.963 29.545,17.836 73.596,44.427 73.596,44.427 0.677,0.408 1.053,1.129 1.053,1.866 0,0.376 -0.098,0.756 -0.302,1.104 -0.608,1.029 -1.929,1.375 -2.964,0.779 0,0 -64.379,-37.17 -128.506,-74.193 69.492,42.648 138.984,85.296 138.984,85.296 0.669,0.41 1.039,1.125 1.039,1.858 0,0.378 -0.1,0.762 -0.306,1.111 -0.609,1.022 -1.927,1.366 -2.959,0.77"
           style="fill:#62a654;fill-opacity:1;fill-rule:nonzero;stroke:none"
           id="path15693"
           inkscape:connector-curvature="0" /><path
           d="m 437.713,389.792 c 0.67,0.411 1.04,1.125 1.04,1.857 0,0.379 -0.099,0.763 -0.306,1.111 -0.609,1.024 -1.927,1.368 -2.959,0.772 0,0 -54.607,-31.528 -91.927,-53.074 30.043,18 79.013,47.341 79.013,47.341 0.68,0.408 1.057,1.129 1.057,1.869 0,0.375 -0.096,0.755 -0.301,1.102 -0.605,1.029 -1.928,1.378 -2.964,0.78 0,0 -48.899,-28.231 -108.405,-62.587 l 0,-16.22 c 67.789,41.535 125.752,77.049 125.752,77.049"
           style="fill:#62a654;fill-opacity:1;fill-rule:nonzero;stroke:none"
           id="path15695"
           inkscape:connector-curvature="0" /><path
           d="m 441.654,347.872 c 0.667,0.411 1.035,1.124 1.035,1.856 0,0.379 -0.098,0.763 -0.306,1.112 -0.61,1.023 -1.927,1.366 -2.958,0.771 0,0 -55.588,-32.094 -101.837,-58.795 47.146,28.479 103.082,62.267 103.082,62.267 0.676,0.409 1.052,1.128 1.052,1.865 0,0.376 -0.099,0.758 -0.303,1.105 -0.607,1.028 -1.929,1.375 -2.964,0.779 0,0 -63.073,-36.416 -126.494,-73.031 l 0,-17.736 c 67.476,41.521 129.693,79.807 129.693,79.807"
           style="fill:#62a654;fill-opacity:1;fill-rule:nonzero;stroke:none"
           id="path15697"
           inkscape:connector-curvature="0" /><path
           d="m 201.188,415.25 c 0.662,0.412 1.028,1.124 1.028,1.851 0,0.382 -0.101,0.767 -0.311,1.117 -0.611,1.019 -1.925,1.361 -2.954,0.766 0,0 -6.776,-3.912 -17.58,-10.15 l 0,-5.893 c 10.062,6.251 19.817,12.309 19.817,12.309"
           style="fill:#000000;fill-opacity:1;fill-rule:nonzero;stroke:none"
           id="path15699"
           inkscape:connector-curvature="0" /><path
           d="m 258.757,360.199 c 0.657,0.413 1.018,1.121 1.018,1.845 0,0.383 -0.1,0.77 -0.312,1.122 -0.612,1.016 -1.925,1.354 -2.952,0.76 0,0 -37.812,-21.829 -72.111,-41.634 29.49,18.366 63.621,39.622 63.621,39.622 0.662,0.411 1.026,1.122 1.026,1.848 0,0.382 -0.101,0.768 -0.311,1.118 -0.61,1.019 -1.926,1.36 -2.954,0.766 0,0 -29.808,-17.21 -64.411,-37.189 l 0,-16.894 c 39.978,25.126 77.386,48.636 77.386,48.636"
           style="fill:#000000;fill-opacity:1;fill-rule:nonzero;stroke:none"
           id="path15701"
           inkscape:connector-curvature="0" /><path
           d="m 239.109,366.032 c 0.656,0.414 1.016,1.12 1.016,1.843 0,0.383 -0.102,0.771 -0.313,1.124 -0.614,1.014 -1.926,1.352 -2.952,0.76 0,0 -24.375,-14.073 -55.489,-32.037 l 0,-8.132 c 31.122,19.644 57.738,36.442 57.738,36.442"
           style="fill:#000000;fill-opacity:1;fill-rule:nonzero;stroke:none"
           id="path15703"
           inkscape:connector-curvature="0" /><path
           d="m 234.667,374.495 c 0.646,0.415 1.001,1.116 1.001,1.833 0,0.387 -0.104,0.777 -0.318,1.131 -0.615,1.01 -1.923,1.344 -2.947,0.752 0,0 -22.356,-12.906 -51.032,-29.463 l 0,-8.462 c 29.954,19.227 53.296,34.209 53.296,34.209"
           style="fill:#000000;fill-opacity:1;fill-rule:nonzero;stroke:none"
           id="path15705"
           inkscape:connector-curvature="0" /><path
           inkscape:connector-curvature="0"
           id="path26321"
           style="fill:#000000;fill-opacity:1;fill-rule:nonzero;stroke:none"
           d="m 262.111,376.7244 c -0.677,-0.408 -1.053,-1.126 -1.053,-1.865 0,-0.377 0.097,-0.758 0.302,-1.103 0.607,-1.03 1.929,-1.377 2.962,-0.782 0,0 16.585,9.577 42.049,24.278 1.64561,2.86514 -1.77898,4.79277 -1.77898,4.79277 -24.515,-14.764 -42.48102,-25.32077 -42.48102,-25.32077"
           sodipodi:nodetypes="csccccc" /><path
           d="m 291.358,255.388 c 6.882,4.235 13.768,8.473 20.603,12.677 l 0,17.736 c -1.515,-0.875 -3.029,-1.748 -4.543,-2.623 1.514,0.924 3.028,1.846 4.543,2.769 l 0,25.132 c -15.372,-8.874 -31.249,-18.04 -47.078,-27.18 15.823,9.695 31.703,19.425 47.078,28.844 l 0,16.22 c -16.813,-9.706 -34.471,-19.901 -52.113,-30.086 17.578,10.761 35.206,21.555 52.113,31.904 l 0,9.168 c -18.293,-10.561 -37.503,-21.653 -56.659,-32.712 19.282,11.8 38.574,23.605 56.659,34.672 l 0,8.394 c -20.761,-11.986 -43.277,-24.985 -65.78,-37.977 22.489,13.746 45.001,27.506 65.78,40.207 l 0,8.28 c -19.335,-11.162 -40.171,-23.192 -60.986,-35.21 20.88,12.688 41.85,25.428 60.986,37.053 l 0,7.43 c -24.238,-13.993 -51.922,-29.976 -79.606,-45.96 27.796,16.954 55.594,33.908 79.606,48.553 l 0,13.779 c -37.89,-21.876 -86.48,-49.93 -130.59,-75.397 l 0,-11.465 c 14.548,8.4 29.807,17.21 45.046,26.007 -15.222,-9.284 -30.444,-18.568 -45.046,-27.474 l 0,-8.465 c 13.531,7.813 27.573,15.919 41.584,24.009 -14.017,-8.516 -28.071,-17.055 -41.584,-25.266 l 0,-8.015 c 23.8,13.741 49.977,28.854 76.076,43.922 -26.259,-16.051 -52.551,-32.122 -76.076,-46.502 l 0,-7.931 c 24.685,14.253 52.587,30.361 80.436,46.44 -28.04,-17.159 -56.097,-34.327 -80.436,-49.223 l 0,-7.573 c 30.173,17.422 66.688,38.503 102.969,59.45 -36.397,-22.282 -73.02,-44.704 -102.969,-63.039 l 0,-7.393 c 2.985,1.723 5.845,3.375 8.513,4.914 -2.701,-1.618 -5.556,-3.328 -8.513,-5.1 l 0,-6.564 c 32.248,18.617 72.287,41.735 111.894,64.601 -39.956,-24.481 -80.268,-49.179 -111.894,-68.556 l 0,-7.18 c 21.15,12.211 45.688,26.379 69.52,40.137 -23.84,-14.404 -48.637,-29.387 -69.52,-42.004 l 0,-6.402 c 15.655,9.039 32.985,19.043 48.685,28.107 -15.593,-9.391 -33.103,-19.935 -48.685,-29.32 l 0,-6.127 c 29.404,16.976 70.65,40.791 111.889,64.599 -41.97,-25.578 -84.015,-51.201 -111.889,-68.187 l 0,-6.08 c 19.585,11.307 45.612,26.334 69.005,39.84 -23.491,-14.192 -49.153,-29.692 -69.005,-41.684 l 0,-5.937 c 30.326,17.507 78.232,45.166 125.772,72.612 -48.621,-29.917 -97.497,-59.995 -125.772,-77.394 l 0,-5.957 c 21.906,12.649 56.758,32.77 89.675,51.774 -33.311,-20.213 -69.005,-41.873 -89.675,-54.414 l 0,-5.545 c 25.087,14.484 77.361,44.666 130.59,75.396 l 0,13.211 c -6.833,-3.945 -13.72,-7.922 -20.603,-11.895"
           style="fill:#000000;fill-opacity:1;fill-rule:nonzero;stroke:none"
           id="path15707"
           inkscape:connector-curvature="0" /><path
           d="m 209.951,413.796 c 0.653,0.414 1.012,1.119 1.012,1.843 0,0.382 -0.1,0.771 -0.313,1.123 -0.613,1.014 -1.925,1.351 -2.951,0.759 0,0 -13.178,-7.608 -26.328,-15.201 l 0,-6.592 c 16.771,10.604 28.58,18.068 28.58,18.068"
           style="fill:#000000;fill-opacity:1;fill-rule:nonzero;stroke:none"
           id="path15709"
           inkscape:connector-curvature="0" /><path
           d="m 195.458,422.768 c 0.641,0.416 0.992,1.115 0.992,1.828 0,0.388 -0.103,0.78 -0.321,1.135 -0.617,1.005 -1.922,1.337 -2.944,0.747 0,0 -4.486,-2.589 -11.814,-6.82 l 0,-6.034 c 8.736,5.669 14.087,9.144 14.087,9.144"
           style="fill:#000000;fill-opacity:1;fill-rule:nonzero;stroke:none"
           id="path15711"
           inkscape:connector-curvature="0" /><path
           d="m 236.724,385.88 c 0.653,0.413 1.011,1.118 1.011,1.84 0,0.384 -0.101,0.773 -0.315,1.126 -0.613,1.013 -1.924,1.349 -2.95,0.757 0,0 -23.159,-13.371 -53.099,-30.658 l 0,-8.158 c 30.957,19.627 55.353,35.093 55.353,35.093"
           style="fill:#000000;fill-opacity:1;fill-rule:nonzero;stroke:none"
           id="path15713"
           inkscape:connector-curvature="0" /><path
           d="m 223.355,401.507 c 0.666,0.412 1.033,1.123 1.033,1.854 0,0.379 -0.099,0.764 -0.308,1.115 -0.61,1.02 -1.927,1.363 -2.957,0.767 0,0 -16.515,-9.535 -39.752,-22.951 l 0,-6.738 c 16.236,10.037 41.984,25.953 41.984,25.953"
           style="fill:#000000;fill-opacity:1;fill-rule:nonzero;stroke:none"
           id="path15715"
           inkscape:connector-curvature="0" /><path
           d="m 224.055,389.433 c 0.644,0.416 0.997,1.115 0.997,1.831 0,0.387 -0.103,0.778 -0.319,1.133 -0.616,1.007 -1.923,1.34 -2.946,0.75 0,0 -16.129,-9.312 -20.512,-11.843 4.316,2.64 20.2,12.359 20.2,12.359 0.67,0.41 1.041,1.124 1.041,1.858 0,0.378 -0.099,0.761 -0.307,1.11 -0.608,1.024 -1.927,1.368 -2.958,0.773 0,0 -24.023,-13.869 -37.88,-21.87 l 0,-13.646 c 24.468,15.789 42.684,27.545 42.684,27.545"
           style="fill:#000000;fill-opacity:1;fill-rule:nonzero;stroke:none"
           id="path15717"
           inkscape:connector-curvature="0" /><path
           d="m 206.089,402.541 c 0.642,0.416 0.994,1.114 0.994,1.829 0,0.388 -0.104,0.779 -0.32,1.133 -0.617,1.007 -1.923,1.34 -2.945,0.75 0,0 -9.139,-5.278 -22.447,-12.961 l 0,-6.754 c 14.886,9.637 24.718,16.003 24.718,16.003"
           style="fill:#000000;fill-opacity:1;fill-rule:nonzero;stroke:none"
           id="path15719"
           inkscape:connector-curvature="0" /><path
           d="m 181.371,173.688 0,-5.036 c 0.14,0.045 0.279,0.106 0.412,0.182 0,0 45.038,26.004 75.584,43.639 -29.538,-17.83 -73.586,-44.42 -73.586,-44.42 -0.676,-0.408 -1.052,-1.127 -1.052,-1.865 0,-0.377 0.098,-0.758 0.303,-1.104 0.607,-1.029 1.929,-1.375 2.963,-0.779 0,0 62.081,35.841 125.966,72.726 l 0,16.803 C 251.31,216.611 192.333,180.414 181.371,173.688"
           style="fill:#000000;fill-opacity:1;fill-rule:nonzero;stroke:none"
           id="path15721"
           inkscape:connector-curvature="0" /><path
           d="m 245.278,143.107 c -0.655,-0.414 -1.015,-1.121 -1.015,-1.843 0,-0.383 0.1,-0.772 0.313,-1.123 0.612,-1.016 1.925,-1.354 2.951,-0.76 0,0 29,16.744 64.434,37.201 l 0,8.594 c -36.723,-23.168 -66.683,-42.069 -66.683,-42.069"
           style="fill:#000000;fill-opacity:1;fill-rule:nonzero;stroke:none"
           id="path15723"
           inkscape:connector-curvature="0" /><path
           d="m 185.387,159.035 c -0.668,-0.41 -1.038,-1.125 -1.038,-1.857 0,-0.379 0.1,-0.762 0.307,-1.112 0.61,-1.023 1.927,-1.365 2.958,-0.769 0,0 45.046,26.006 76.688,44.273 -30.269,-18.299 -74.071,-44.779 -74.071,-44.779 -0.677,-0.408 -1.051,-1.127 -1.051,-1.865 0,-0.377 0.097,-0.758 0.303,-1.106 0.607,-1.025 1.929,-1.373 2.962,-0.777 0,0 52.847,30.512 99.382,57.379 -40.917,-24.877 -89.57,-54.455 -89.57,-54.455 -0.674,-0.41 -1.046,-1.127 -1.046,-1.863 0,-0.377 0.098,-0.76 0.304,-1.108 0.608,-1.025 1.927,-1.371 2.961,-0.775 0,0 45.821,26.453 82.499,47.629 -35.139,-21.371 -79.622,-48.43 -79.622,-48.43 -0.674,-0.408 -1.047,-1.125 -1.047,-1.861 0,-0.377 0.099,-0.76 0.305,-1.108 0.608,-1.025 1.928,-1.371 2.961,-0.775 0,0 48.499,28.002 102.389,59.115 l 0,32.022 C 247.752,197.357 185.387,159.035 185.387,159.035"
           style="fill:#000000;fill-opacity:1;fill-rule:nonzero;stroke:none"
           id="path15725"
           inkscape:connector-curvature="0" /><path
           d="m 225.042,149.764 c -0.662,-0.412 -1.027,-1.123 -1.027,-1.852 0,-0.379 0.101,-0.766 0.31,-1.115 0.611,-1.02 1.926,-1.361 2.955,-0.766 0,0 42.31,24.428 79.176,45.711 -35.976,-22.127 -77.391,-47.599 -77.391,-47.599 -0.667,-0.411 -1.035,-1.125 -1.035,-1.856 0,-0.379 0.098,-0.764 0.307,-1.113 0.609,-1.022 1.927,-1.365 2.958,-0.772 0,0 36.871,21.289 80.666,46.575 l 0,16.873 c -46.104,-28.69 -86.919,-54.086 -86.919,-54.086"
           style="fill:#000000;fill-opacity:1;fill-rule:nonzero;stroke:none"
           id="path15727"
           inkscape:connector-curvature="0" /><path
           d="m 311.466,162.689 c -0.627,-0.418 -0.97,-1.107 -0.97,-1.812 0,-0.393 0.106,-0.789 0.327,-1.147 0.274,-0.439 0.683,-0.74 1.138,-0.898 l 0,4.188 c -0.323,-0.215 -0.495,-0.331 -0.495,-0.331"
           style="fill:#62a654;fill-opacity:1;fill-rule:nonzero;stroke:none"
           id="path15729"
           inkscape:connector-curvature="0" /><path
           d="m 231.60746,124.73457 c -1.23726,-0.76724 -1.91851,-2.08011 -1.91851,-3.42279 0,-0.7151 0.19356,-1.43951 0.59966,-2.09501 1.16325,-1.88645 1.47757,-0.99445 3.42265,0.11172 0,0 34.72725,23.37049 78.33874,48.08051 l -0.089,7.362 c -45.18084,-28.12908 -80.35354,-50.03643 -80.35354,-50.03643"
           style="fill:#000000;fill-opacity:1;fill-rule:nonzero;stroke:none"
           id="path15731"
           inkscape:connector-curvature="0"
           sodipodi:nodetypes="csccccc" /><path
           d="m 179.557,172.574 c -0.669,-0.41 -1.039,-1.125 -1.039,-1.855 0,-0.381 0.099,-0.764 0.307,-1.114 0.529,-0.89 1.598,-1.265 2.546,-0.953 l 0,5.036 c -1.189,-0.731 -1.814,-1.114 -1.814,-1.114"
           style="fill:#d84345;fill-opacity:1;fill-rule:nonzero;stroke:none"
           id="path15733"
           inkscape:connector-curvature="0" /><path
           d="m 110.827,206.09 c -0.68,-0.406 -1.058,-1.129 -1.058,-1.867 0,-0.377 0.097,-0.756 0.301,-1.104 0.605,-1.029 1.929,-1.379 2.964,-0.781 0,0 28.104,16.226 68.337,39.455 l 0,6.564 C 151.407,230.404 110.827,206.09 110.827,206.09"
           style="fill:#d84345;fill-opacity:1;fill-rule:nonzero;stroke:none"
           id="path15735"
           inkscape:connector-curvature="0" /><path
           d="m 95.676,225.432 c -0.671,-0.411 -1.041,-1.125 -1.041,-1.86 0,-0.379 0.098,-0.761 0.304,-1.109 0.609,-1.024 1.928,-1.367 2.96,-0.774 0,0 35.716,20.622 83.472,48.192 l 0,7.931 c -48.8,-29.828 -85.695,-52.38 -85.695,-52.38"
           style="fill:#d84345;fill-opacity:1;fill-rule:nonzero;stroke:none"
           id="path15737"
           inkscape:connector-curvature="0" /><path
           d="m 113.519,214.395 c -0.671,-0.411 -1.04,-1.125 -1.04,-1.86 0,-0.379 0.098,-0.762 0.306,-1.111 0.608,-1.024 1.927,-1.367 2.958,-0.772 0,0 38.197,22.053 65.628,37.891 l 0,7.393 c -39.826,-24.383 -67.852,-41.541 -67.852,-41.541"
           style="fill:#d84345;fill-opacity:1;fill-rule:nonzero;stroke:none"
           id="path15739"
           inkscape:connector-curvature="0" /><path
           d="m 107.746,222.043 c -0.67,-0.408 -1.04,-1.123 -1.04,-1.855 0,-0.381 0.098,-0.764 0.305,-1.112 0.61,-1.025 1.928,-1.369 2.96,-0.773 0,0 29.62,17.101 71.4,41.222 l 0,7.573 C 138.9,241.109 107.746,222.043 107.746,222.043"
           style="fill:#d84345;fill-opacity:1;fill-rule:nonzero;stroke:none"
           id="path15741"
           inkscape:connector-curvature="0" /><path
           d="m 171.57,305.403 c 3.271,2.056 6.545,4.113 9.801,6.16 l 0,16.894 c -6.896,-3.981 -13.981,-8.072 -21.061,-12.159 7.082,4.47 14.181,8.951 21.061,13.292 l 0,8.132 c -12.535,-7.237 -26.162,-15.104 -39.732,-22.939 13.586,8.721 27.234,17.481 39.732,25.503 l 0,8.462 c -11.348,-6.552 -23.685,-13.675 -36.02,-20.796 12.304,7.8 24.607,15.6 36.02,22.835 l 0,8.158 c -13.541,-7.817 -28.468,-16.435 -43.267,-24.98 14.992,9.676 30.041,19.388 43.267,27.923 l 0,13.646 c -0.169,-0.097 -0.336,-0.194 -0.501,-0.289 0.166,0.102 0.333,0.205 0.501,0.309 l 0,6.738 c -17.727,-10.234 -39.365,-22.727 -60.575,-34.973 22.083,14.297 44.336,28.704 60.575,39.219 l 0,6.754 c -12.498,-7.216 -28.673,-16.554 -44.404,-25.637 15.663,9.904 31.501,19.916 44.404,28.073 l 0,6.592 c -4.981,-2.876 -9.958,-5.749 -14.214,-8.206 4.016,2.494 9.154,5.685 14.214,8.827 l 0,5.893 c -16.225,-9.367 -41.538,-23.981 -66.677,-38.495 25.59,16.613 51.347,33.332 66.677,43.285 l 0,6.034 c -12.946,-7.474 -34.767,-20.072 -56.434,-32.581 26.837,17.244 55.181,35.456 55.181,35.456 0.646,0.416 1,1.116 1,1.833 0,0.387 -0.103,0.777 -0.318,1.131 -0.615,1.009 -1.923,1.343 -2.947,0.752 0,0 -25.062,-14.47 -47.869,-27.638 18.803,12.165 40.755,26.368 40.755,26.368 0.643,0.416 0.994,1.114 0.994,1.83 0,0.387 -0.104,0.779 -0.32,1.133 -0.616,1.008 -1.922,1.339 -2.945,0.749 0,0 -28.381,-16.386 -56.666,-32.717 22.472,15.236 45.058,30.551 45.058,30.551 0.619,0.419 0.956,1.104 0.956,1.803 0,0.396 -0.108,0.795 -0.333,1.153 -0.622,0.993 -1.918,1.316 -2.932,0.73 0,0 -28.971,-16.726 -55.953,-32.303 19.824,14.218 39.755,28.513 39.755,28.513 0.591,0.424 0.908,1.091 0.908,1.769 0,0.406 -0.113,0.816 -0.347,1.179 -0.63,0.975 -1.913,1.285 -2.918,0.705 0,0 -16.542,-9.552 -32.55,-18.793 9.406,7.501 18.963,15.124 18.963,15.124 0.536,0.428 0.82,1.061 0.82,1.702 0,0.424 -0.124,0.851 -0.379,1.225 -0.642,0.942 -1.9,1.228 -2.886,0.66 L 90.197,412.805 c -1.041,-0.601 -1.398,-1.932 -0.796,-2.973 0.601,-1.041 1.932,-1.397 2.974,-0.796 0,0 3.408,1.968 4.62,2.668 -9.405,-7.502 -18.964,-15.125 -18.964,-15.125 -0.536,-0.429 -0.82,-1.061 -0.82,-1.703 0,-0.424 0.124,-0.851 0.379,-1.225 0.642,-0.941 1.9,-1.228 2.886,-0.658 0,0 10.77,6.218 19.488,11.251 C 80.145,390.028 60.22,375.738 60.22,375.738 c -0.591,-0.424 -0.908,-1.091 -0.908,-1.771 0,-0.404 0.113,-0.813 0.348,-1.177 0.629,-0.975 1.912,-1.286 2.916,-0.706 0,0 21.241,12.262 41.989,24.243 -22.482,-15.244 -45.078,-30.566 -45.078,-30.566 -0.62,-0.42 -0.956,-1.105 -0.956,-1.803 0,-0.396 0.108,-0.795 0.333,-1.154 0.621,-0.992 1.918,-1.315 2.932,-0.729 0,0 19.537,11.28 34.427,19.877 -18.797,-12.162 -40.746,-26.363 -40.746,-26.363 -0.643,-0.416 -0.995,-1.114 -0.995,-1.829 0,-0.388 0.103,-0.779 0.32,-1.134 0.616,-1.007 1.923,-1.339 2.945,-0.749 0,0 23.373,13.495 42.941,24.793 -26.81,-17.227 -55.138,-35.428 -55.138,-35.428 -0.646,-0.415 -1,-1.117 -1,-1.834 0,-0.386 0.103,-0.777 0.318,-1.131 0.615,-1.008 1.924,-1.342 2.947,-0.752 0,0 37.69,21.761 75.347,43.5 -40.182,-26.084 -80.783,-52.441 -80.783,-52.441 -0.64,-0.416 -0.991,-1.114 -0.991,-1.827 0,-0.388 0.104,-0.781 0.321,-1.135 0.617,-1.006 1.922,-1.338 2.944,-0.747 0,0 24.585,14.193 39.479,22.792 -12.036,-7.476 -34.086,-21.172 -34.086,-21.172 -0.663,-0.412 -1.028,-1.122 -1.028,-1.851 0,-0.38 0.1,-0.766 0.31,-1.117 0.61,-1.019 1.926,-1.36 2.955,-0.766 0,0 33.025,19.068 63.714,36.787 -36.009,-22.765 -72.956,-46.124 -72.956,-46.124 -0.655,-0.413 -1.015,-1.119 -1.015,-1.841 0,-0.384 0.102,-0.772 0.315,-1.125 0.613,-1.013 1.925,-1.351 2.951,-0.758 0,0 43.648,25.2 86.747,50.084 -42.323,-27.401 -85.286,-55.217 -85.286,-55.217 -0.642,-0.415 -0.994,-1.114 -0.994,-1.828 0,-0.388 0.104,-0.781 0.321,-1.134 0.616,-1.008 1.922,-1.339 2.944,-0.749 0,0 29.145,16.826 48.863,28.211 C 81.671,319.043 55.378,302.79 55.378,302.79 c -0.665,-0.411 -1.032,-1.123 -1.032,-1.853 0,-0.381 0.1,-0.766 0.309,-1.115 0.61,-1.02 1.926,-1.363 2.956,-0.768 0,0 12.994,7.502 15.723,9.077 -4.328,-2.647 -20.23,-12.377 -20.23,-12.377 -0.67,-0.409 -1.041,-1.125 -1.041,-1.858 0,-0.378 0.099,-0.761 0.306,-1.11 0.609,-1.024 1.927,-1.369 2.959,-0.773 0,0 46.668,26.944 92.471,53.39 -42.728,-27.575 -85.943,-55.464 -85.943,-55.464 -0.644,-0.415 -0.997,-1.114 -0.997,-1.83 0,-0.387 0.103,-0.778 0.319,-1.133 0.616,-1.007 1.924,-1.34 2.947,-0.75 0,0 40.887,23.607 81.529,47.072 -45.676,-28.958 -91.373,-57.929 -91.373,-57.929 -0.653,-0.413 -1.011,-1.118 -1.011,-1.84 0,-0.384 0.101,-0.773 0.314,-1.124 0.614,-1.014 1.924,-1.351 2.95,-0.758 0,0 49.443,28.545 97.91,56.528 -46.138,-29.614 -93.005,-59.697 -93.005,-59.697 -0.647,-0.415 -1.001,-1.117 -1.001,-1.833 0,-0.387 0.103,-0.778 0.318,-1.131 0.615,-1.01 1.923,-1.344 2.947,-0.752 0,0 40.187,23.201 79.72,46.024 -39.134,-24.699 -78.828,-49.752 -78.828,-49.752 -0.656,-0.414 -1.015,-1.12 -1.015,-1.843 0,-0.382 0.1,-0.771 0.313,-1.123 0.613,-1.014 1.924,-1.351 2.951,-0.759 0,0 36.18,20.889 68.204,39.377 -29.507,-18.375 -63.646,-39.637 -63.646,-39.637 -0.662,-0.41 -1.026,-1.121 -1.026,-1.848 0,-0.382 0.1,-0.767 0.311,-1.118 0.61,-1.019 1.925,-1.358 2.954,-0.765 0,0 42.58,24.584 84.529,48.804 -43.428,-27.293 -87.168,-54.784 -87.168,-54.784 -0.657,-0.414 -1.019,-1.121 -1.019,-1.846 0,-0.383 0.101,-0.769 0.313,-1.121 0.612,-1.016 1.925,-1.355 2.953,-0.762 0,0 47.292,27.305 74.911,43.25 -22.101,-13.241 -64.587,-38.699 -64.587,-38.699 -0.68,-0.408 -1.058,-1.127 -1.058,-1.869 0,-0.375 0.097,-0.754 0.3,-1.102 0.607,-1.029 1.93,-1.378 2.965,-0.781 0,0 43.198,24.94 95.591,55.188 l 0,11.465 c -3.294,-1.902 -6.563,-3.789 -9.801,-5.658"
           style="fill:#d84345;fill-opacity:1;fill-rule:nonzero;stroke:none"
           id="path15743"
           inkscape:connector-curvature="0" /><path
           d="m 75.759,233.715 c -0.672,-0.41 -1.044,-1.127 -1.044,-1.86 0,-0.378 0.099,-0.761 0.305,-1.109 0.609,-1.025 1.929,-1.371 2.96,-0.773 0,0 47.311,27.313 103.391,59.691 l 0,8.465 C 123.724,262.969 75.759,233.715 75.759,233.715"
           style="fill:#d84345;fill-opacity:1;fill-rule:nonzero;stroke:none"
           id="path15745"
           inkscape:connector-curvature="0" /><path
           d="m 82.443,228.301 c -0.674,-0.408 -1.047,-1.127 -1.047,-1.862 0,-0.376 0.099,-0.759 0.304,-1.107 0.608,-1.027 1.928,-1.371 2.961,-0.775 0,0 42.104,24.308 96.71,55.835 l 0,8.015 C 127.622,255.751 82.443,228.301 82.443,228.301"
           style="fill:#d84345;fill-opacity:1;fill-rule:nonzero;stroke:none"
           id="path15747"
           inkscape:connector-curvature="0" /><path
           d="m 130.063,197.791 c -0.677,-0.408 -1.052,-1.127 -1.052,-1.863 0,-0.377 0.098,-0.758 0.303,-1.106 0.607,-1.027 1.928,-1.375 2.963,-0.779 0,0 22.048,12.73 49.094,28.346 l 0,6.402 c -29.582,-17.873 -51.308,-31 -51.308,-31"
           style="fill:#d84345;fill-opacity:1;fill-rule:nonzero;stroke:none"
           id="path15749"
           inkscape:connector-curvature="0" /><path
           d="m 148.523,191.443 c -0.672,-0.41 -1.044,-1.127 -1.044,-1.861 0,-0.377 0.098,-0.76 0.305,-1.107 0.608,-1.026 1.928,-1.371 2.96,-0.776 0,0 12.58,7.262 30.627,17.682 l 0,6.08 c -20.113,-12.258 -32.848,-20.018 -32.848,-20.018"
           style="fill:#d84345;fill-opacity:1;fill-rule:nonzero;stroke:none"
           id="path15751"
           inkscape:connector-curvature="0" /><path
           d="m 147.23,182.914 c -0.676,-0.408 -1.051,-1.127 -1.051,-1.865 0,-0.375 0.097,-0.758 0.303,-1.104 0.606,-1.029 1.929,-1.375 2.962,-0.779 0,0 12.272,7.086 31.927,18.434 l 0,5.937 C 161.344,191.439 147.23,182.914 147.23,182.914"
           style="fill:#d84345;fill-opacity:1;fill-rule:nonzero;stroke:none"
           id="path15753"
           inkscape:connector-curvature="0" /><path
           d="m 156.873,177.744 c -0.668,-0.412 -1.037,-1.123 -1.037,-1.855 0,-0.379 0.1,-0.764 0.308,-1.114 0.609,-1.021 1.927,-1.365 2.958,-0.769 0,0 8.626,4.98 22.269,12.855 l 0,5.957 c -15.242,-9.379 -24.498,-15.074 -24.498,-15.074"
           style="fill:#d84345;fill-opacity:1;fill-rule:nonzero;stroke:none"
           id="path15755"
           inkscape:connector-curvature="0" /><path
           d="m 120.465,200.521 c -0.669,-0.41 -1.038,-1.125 -1.038,-1.857 0,-0.379 0.098,-0.764 0.305,-1.111 0.609,-1.024 1.928,-1.367 2.959,-0.772 0,0 25.056,14.465 58.68,33.877 l 0,7.18 c -36.115,-22.127 -60.906,-37.317 -60.906,-37.317"
           style="fill:#d84345;fill-opacity:1;fill-rule:nonzero;stroke:none"
           id="path15757"
           inkscape:connector-curvature="0" /><path
           d="m 137.111,194.521 c -0.677,-0.408 -1.053,-1.126 -1.053,-1.865 0,-0.377 0.097,-0.758 0.302,-1.103 0.607,-1.03 1.929,-1.377 2.962,-0.782 0,0 16.585,9.577 42.049,24.278 l 0,6.127 c -24.515,-14.764 -44.26,-26.655 -44.26,-26.655"
           style="fill:#d84345;fill-opacity:1;fill-rule:nonzero;stroke:none"
           id="path15759"
           inkscape:connector-curvature="0" /><path
           d="m 163.76,173.533 c -0.674,-0.408 -1.047,-1.125 -1.047,-1.861 0,-0.377 0.099,-0.76 0.304,-1.108 0.607,-1.025 1.928,-1.371 2.961,-0.777 0,0 5.645,3.26 15.393,8.889 l 0,5.545 C 170.48,177.611 163.76,173.533 163.76,173.533"
           style="fill:#d84345;fill-opacity:1;fill-rule:nonzero;stroke:none"
           id="path15761"
           inkscape:connector-curvature="0" /><g
           transform="matrix(0.7100024,0,0,-0.57939416,-15.34171,689.92633)"
           id="layer1"
           inkscape:label="Layer 1"><path
             style="fill:#edd613;fill-opacity:1;stroke:#000000;stroke-width:0.80816126px;stroke-linecap:butt;stroke-linejoin:miter;stroke-opacity:1"
             inkscape:path-effect="#path-effect3085;#path-effect3071"
             inkscape:original-d="M 331.09527,481.0275 C 284.50032,427.27635 194.72713,401.37154 134.98921,449.02032 73.504511,496.89146 33.90114,577.75588 44.980055,656.20133 57.543787,736.2528 126.17742,788.62955 186.03666,835.25121 c 46.57777,34.61539 89.62028,74.15722 123.56182,121.46343 21.03011,26.54507 41.9526,53.17516 62.82564,79.84376 42.22089,-48.55892 79.49873,-101.55565 125.00997,-147.12545 64.79527,-61.95462 152.40238,-105.07848 192.6961,-188.96746 37.14219,-79.88217 2.90504,-175.34388 -56.64121,-234.45594 -32.43047,-34.5403 -82.66152,-51.35666 -128.82678,-37.68269 -55.37621,13.19217 -103.64546,55.71736 -117.19762,111.9558 -7.5562,19.03658 -13.02753,60.44581 -15.56032,67.56266 -4.98788,-43.9553 -12.51415,-91.25326 -40.80899,-126.81782 z"
             id="path3069"
             d="m 329.59187,484.24435 c -17.92236,-19.70106 -42.9206,-32.8994 -69.66438,-40.04512 m 17.14074,-3.76337 c -12.26473,-5.25248 -24.77991,-8.85497 -37.31791,-10.75357 -10.50805,-1.5912 -21.01291,-1.99191 -31.38877,-1.30856 m 8.96178,5.79047 c -25.88602,-1.67733 -50.2785,2.09182 -72.62303,10.03994 m 21.32967,-2.7527 c -9.57263,3.34179 -19.11482,7.43667 -28.308,12.34537 -18.6038,9.9335 -35.72288,23.18014 -49.279741,39.57128 m 11.490848,-27.56231 c -22.73808,17.15231 -38.204186,40.14897 -46.104016,65.02665 m 9.303491,-12.7126 c -4.040378,6.64038 -7.477428,13.29702 -10.307236,19.95641 -6.836596,16.08855 -10.122507,32.1404 -10.328358,47.81134 m -4.528409,-13.4035 c -5.712997,24.39175 -4.408018,49.53634 2.736222,73.37895 m 2.219743,-20.4857 c 1.213245,9.06116 2.897486,18.23023 5.097672,27.38462 3.405236,14.16828 7.957931,28.1721 13.442966,41.96582 m -7.314673,-12.21501 c 12.295122,27.36325 28.390021,50.40056 46.852081,70.17795 0.88938,0.95274 1.78437,1.89856 2.68496,2.83782 m -13.17571,-20.6662 c 4.21867,5.91887 8.730541,11.6138 13.47144,17.12987 15.60169,18.15268 33.69165,34.52034 52.56277,51.66413 m -23.11488,-15.82816 c 18.23168,16.58572 35.72821,31.79964 53.02722,47.04677 2.77633,2.44702 5.55026,4.89741 8.32837,7.35402 m -20.12041,-18.4612 c 2.37176,2.0419 4.71567,4.06323 7.03279,6.06774 21.08708,18.24215 40.03739,35.16924 59.07057,52.37698 m -18.76858,-8.9769 c 21.41165,19.30142 41.46016,40.93749 62.04156,65.70351 m -10.67211,-22.42136 c 11.86965,13.74517 23.77919,27.62597 35.03856,42.46069 4.08382,5.38061 8.08163,10.88621 11.96405,16.55205 m -8.21161,-18.40104 c 17.47553,19.12499 33.04853,40.09005 46.97718,61.49187 m -10.54733,-12.242 c 7.48309,10.4182 15.11555,20.8721 22.79973,31.5065 9.77098,-14.9699 20.77118,-29.4529 32.69612,-42.96102 m -14.95956,19.18782 c 18.63665,-26.30744 38.31426,-54.48224 60.56405,-82.31279 m -20.51212,22.32088 c 20.96039,-23.74975 44.28325,-45.59787 70.00517,-63.05827 0.38291,-0.25993 0.76634,-0.51887 1.15028,-0.77685 m -23.89108,12.50727 c 6.73504,-6.13088 13.73331,-12.21791 21.00078,-18.23488 14.54946,-12.04593 30.15579,-23.80298 46.49647,-35.64777 m -27.95911,21.48073 c 24.79923,-19.05716 50.07326,-36.55534 76.49467,-56.51215 m -18.43995,15.62949 c 9.69897,-7.48218 19.14355,-15.14476 28.27117,-23.19164 14.71139,-12.96952 28.67721,-27.08303 41.34235,-42.80402 m -15.21708,20.34186 c 22.81059,-24.4685 45.4039,-47.58551 61.39368,-75.57814 m -17.26134,26.54477 c 6.52659,-10.1346 12.29624,-20.97394 17.11473,-32.63747 7.96636,-19.28323 13.14091,-40.62193 15.49082,-63.52092 m -10.98123,34.03868 c 7.48572,-31.7913 9.26689,-64.99279 3.25931,-96.74873 -0.12342,-0.65236 -0.25011,-1.30406 -0.38007,-1.95506 m 6.23,19.92998 c -0.60526,-8.77745 -2.02617,-17.52468 -4.21017,-26.06077 -4.90042,-19.15307 -13.63077,-37.18895 -24.97189,-52.21774 m 15.19729,23.59157 C 678.95781,517.60236 664.96206,498.18612 647.4551,482.21568 m 13.46846,13.95702 c -7.56275,-9.37595 -15.99579,-17.83693 -25.13096,-25.35452 -13.23449,-10.89102 -28.08627,-19.77485 -43.64344,-26.5394 m 17.70629,10.85725 c -12.19572,-6.47345 -24.85885,-11.9312 -37.89263,-15.99638 -11.19121,-3.49049 -22.6543,-5.95405 -34.33511,-7.15733 m 15.87491,3.89041 c -16.80093,-2.86642 -33.65022,-3.9699 -49.96485,-2.55357 -10.42217,0.90478 -20.50141,2.82478 -29.97601,5.69943 m 14.33249,-13.31252 c -24.66859,5.09911 -46.60587,18.39765 -63.69176,37.05709 -5.65392,6.17462 -10.76909,12.92842 -15.31972,20.10688 m 19.87888,-13.89336 c -1.22851,1.14747 -2.4338,2.30997 -3.61518,3.48758 -18.80391,18.74383 -31.47738,41.24456 -36.80169,66.24848 m 16.25967,-27.62769 c -3.76518,9.01527 -6.6934,18.39862 -8.65892,27.99382 -4.03982,17.54861 -8.22788,35.09075 -12.3937,52.75938 m 1.33227,-17.13132 c -2.47145,11.76595 -5.32439,23.71455 -8.46212,35.84069 1.70593,-17.76766 -0.68602,-35.49314 -6.49,-52.11679 m 4.45736,17.04907 c -1.10497,-12.96466 -3.6145,-25.65814 -7.50388,-37.77432 -5.58867,-17.4098 -14.02681,-33.62901 -25.24284,-47.75293 m 19.23324,16.58075 C 355.19239,494.9354 347.54795,484.33955 338.35,475.21107 327.11139,464.05735 313.66837,455.11246 299.198,448.7746 m 21.59534,34.28252 c -22.67536,-20.63245 -50.11386,-35.52602 -78.56425,-41.2621 m 23.69442,-9.02269 c -9.97272,-3.89257 -19.99377,-6.59777 -30.01609,-8.17309 -13.56248,-2.13176 -27.09717,-2.20448 -40.5033,-0.63472 m 18.60561,10.26291 c -26.1453,-0.23011 -55.45859,5.93484 -83.47556,17.27819 -6.11808,2.47706 -12.16933,5.19967 -18.11982,8.14078 m 38.52202,-8.53986 c -3.37002,1.57255 -6.71258,3.25041 -10.01386,5.03405 -24.36074,13.16185 -46.372934,32.04813 -61.795372,55.27881 m 8.099432,-37.50155 c -15.189358,15.7939 -26.894338,34.83348 -34.168186,56.29685 -0.879933,2.59647 -1.694911,5.22718 -2.444875,7.8902 m 6.970423,-0.36972 c -1.302072,2.49605 -2.514912,5.00472 -3.638794,7.52477 -11.111968,24.91609 -13.511574,50.81998 -9.227727,76.04682 m -4.800688,-28.95045 c -2.540047,20.74367 0.158443,43.59957 7.405393,66.09531 3.264092,10.13228 7.407148,20.142 12.24395,29.92397 m -6.604314,-22.62559 c 6.586168,24.16884 18.489158,46.74114 33.078886,67.48396 M 74.863509,714.46508 c 8.735152,16.24869 19.806284,30.78141 31.767151,44.2066 4.76393,5.34716 9.66962,10.53244 14.64193,15.62288 m -15.6219,-13.7584 c 15.04807,17.61493 33.26855,34.29461 51.85738,50.64522 m -13.85017,-5.2735 c 13.44351,12.97453 27.71494,24.60464 42.27801,35.92845 8.91442,6.93158 17.93961,13.75095 27.04613,20.60136 m -19.87509,-16.93505 c 24.61631,21.86222 49.04443,44.66655 73.03204,68.82174 m -26.64787,-24.08964 c 22.78731,20.48557 44.83701,42.76667 67.94408,65.67577 m -16.59748,-19.63042 c 6.26444,6.66234 12.21801,13.42409 17.84732,20.27535 14.70686,17.89925 27.18983,36.39801 37.38852,55.12536 m -9.86473,-20.78375 c 13.27213,14.92585 24.47695,30.20345 34.5421,45.25535 5.14484,-10.507 10.36939,-21.0376 15.84718,-31.6841 m -10.22498,19.3581 c 15.74994,-27.58853 34.30965,-51.60328 53.80552,-74.70707 m -8.53207,24.53538 c 17.90486,-21.56752 37.10483,-44.19892 58.21605,-66.23365 m -24.28207,13.10888 c 12.1481,-14.04225 25.8545,-25.8143 40.36218,-36.02659 7.62043,-5.3642 15.45574,-10.29644 23.34095,-14.98687 m -24.67378,20.74176 c 20.24584,-16.32094 42.18525,-31.71994 64.75496,-47.18876 m -11.33952,2.90442 c 18.41008,-13.95924 36.32749,-27.89871 52.99873,-43.11404 6.98178,-6.37206 13.76392,-13.00413 20.25655,-19.94557 m -15.9237,24.71007 c 19.46162,-16.77658 40.21173,-35.3372 57.61763,-55.00277 m -16.46015,9.87769 c 15.99871,-20.05241 31.44779,-39.32652 43.92486,-60.80463 1.14191,-1.96569 2.25405,-3.94451 3.33549,-5.9366 m -2.33498,12.98867 c 2.02519,-3.95898 3.8792,-7.9353 5.55144,-11.9338 8.35948,-19.98839 11.93808,-40.28849 10.6858,-60.24629 m -11.48697,18.71429 c 5.78504,-26.78478 6.02913,-55.69435 2.44853,-83.82393 -0.30177,-2.37073 -0.6306,-4.7351 -0.98459,-7.09157 m 9.16084,20.64626 c -1.08652,-5.74865 -2.37577,-11.35079 -3.89112,-16.79643 -6.29892,-22.63615 -16.48699,-42.49401 -31.31157,-59.09225 m 10.52334,21.76392 c -11.91476,-24.22831 -29.94412,-46.70968 -51.53846,-65.46478 -3.46532,-3.0097 -7.03204,-5.92224 -10.68262,-8.72873 m 24.17819,19.17185 c -3.47637,-3.36448 -7.02466,-6.55012 -10.64327,-9.55831 -16.12917,-13.40835 -33.85294,-23.24485 -52.3497,-29.59561 m 12.61669,-0.8655 c -7.61047,-3.46168 -15.33535,-6.38745 -23.14044,-8.72883 -15.69436,-4.70802 -31.71714,-7.05408 -47.77424,-6.6398 m 18.85101,10.50369 c -12.50543,-0.86856 -24.63599,-0.41256 -36.34203,1.65036 -17.88338,3.15152 -34.49139,9.99656 -49.32305,20.27683 m 19.21912,-16.65065 c -17.56376,6.82946 -32.83837,17.40328 -44.7077,31.16771 -3.5607,4.12921 -6.81189,8.5422 -9.73934,13.20762 m 14.67091,-8.12036 c -18.63324,16.83369 -32.41823,40.37872 -39.94037,65.59365 m 6.86812,-22.35082 c -2.99952,7.69612 -5.54123,15.91841 -7.49501,24.46647 -3.77451,14.85074 -8.21264,30.17117 -12.99263,45.56246 m -3.17318,-9.28634 c -2.52068,13.22941 -5.15583,25.90707 -7.7171,38.27098 2.0916,-13.67528 2.44182,-27.87745 1.38994,-41.93472 m -2.69099,11.54556 c 0.10628,-15.64845 -2.52422,-31.38623 -7.46166,-46.43274 -3.08281,-9.39468 -7.06493,-18.51977 -11.84136,-27.1848 m 12.39375,19.53517 c -7.72969,-17.40834 -18.41394,-33.96714 -32.27399,-48.31953 -9.88282,-10.23389 -21.29775,-19.32839 -34.0695,-27.04722 m 31.52926,13.26537 c -21.44169,-19.94785 -44.73094,-33.6852 -69.11207,-41.00909 m 20.63847,16.59179 c -10.97037,-4.65621 -22.32806,-8.01462 -33.81211,-10.0911 -12.27631,-2.21974 -24.67047,-2.98223 -36.87716,-2.52076 m 6.28856,-0.0573 c -27.8553,0.66103 -56.07008,5.74754 -82.74522,17.09486 m 27.95875,-11.02378 c -7.03233,2.22712 -14.14523,5.1725 -21.22992,8.76664 -20.79311,10.54859 -41.275509,26.66096 -59.383366,45.77384 m 19.691747,-19.90914 c -20.899476,16.73717 -35.973211,37.72982 -45.55086,59.76406 -1.720386,3.9579 -3.262858,7.94559 -4.638753,11.94164 m 6.214801,-20.23239 c -1.688435,3.62419 -3.294919,7.28778 -4.808127,10.9881 -7.525977,18.40359 -12.732189,37.64206 -14.908033,57.16999 m -2.892815,-9.94284 c -3.632073,23.8256 -1.802374,47.81351 5.778803,70.85862 M 37.244969,631.2961 c 0.712512,7.55224 2.09613,14.92707 4.104033,22.1039 4.597175,16.43162 12.348411,31.70679 22.038131,46.16025 m -2.028109,-12.09539 c 11.174949,24.37301 26.090067,45.91635 41.706516,64.50723 1e-5,2e-5 0.0813,0.0968 0.0814,0.0968 M 81.326371,738.29825 c 4.069326,4.84155 8.363073,9.75184 12.844202,14.69038 18.279907,20.1458 39.740027,41.00248 62.977827,61.66455 m -21.22632,-22.94287 c 15.32714,14.46817 32.48064,29.71816 49.51821,45.65214 2.52857,2.36478 5.05977,4.74944 7.59086,7.15266 m -7.11982,-16.24814 c 1.9484,1.51634 3.86963,3.0556 5.76452,4.61738 16.32144,13.45233 30.7204,28.60729 44.29669,44.60893 M 220.7668,870.9589 c 16.67125,17.20468 34.17183,32.51819 50.71678,47.3849 m -8.22995,-8.6319 c 16.12407,16.00878 31.40985,32.70878 45.60324,49.98835 2.47747,3.01617 4.92138,6.0497 7.33113,9.09905 m -16.38888,-20.14219 c 1.72425,1.82469 3.44416,3.65861 5.16044,5.50116 15.38473,16.51667 30.46371,33.71357 45.85704,50.97183 m -14.11908,-17.83356 c 10.10363,13.84436 20.63227,27.82556 31.24192,42.30026 3.84691,-5.6368 7.87099,-11.1755 12.04834,-16.5886 m -7.47759,14.4614 c 12.8304,-21.9547 28.26406,-41.98107 45.95974,-61.1619 m -10.96219,21.03356 c 13.54237,-19.28003 30.52224,-37.99261 48.92707,-55.65303 m -12.59037,6.18444 c 16.80834,-17.34213 33.43643,-34.49122 50.05032,-50.09427 3.51751,-3.3035 7.03278,-6.53706 10.53855,-9.70127 m -8.75393,19.32311 c 2.08565,-1.86566 4.19115,-3.71891 6.3161,-5.56043 15.90027,-13.77949 32.86274,-26.89277 50.16811,-40.48979 m -24.82593,12.10171 c 23.29828,-17.97433 48.05718,-35.07004 73.28788,-54.61394 m -21.48545,5.75293 c 6.09654,-4.70733 12.30991,-9.54728 18.54566,-14.50615 13.25533,-10.54107 26.71969,-21.76338 39.06548,-33.09883 m -10.77958,18.22881 c 20.61246,-20.05932 41.96064,-45.02661 58.14925,-72.9332 m -2.46266,13.64922 c 6.72571,-10.51586 12.42557,-21.0107 16.97049,-31.73597 4.77487,-11.26788 8.19475,-22.70836 10.32919,-34.34701 m -7.4235,21.62269 c 10.33969,-29.62114 12.14572,-64.49828 7.0329,-98.1676 m 4.06464,25.06847 c -0.27801,-13.28625 -1.84022,-25.99475 -4.62074,-37.91022 -2.80635,-12.02614 -6.84931,-23.22112 -11.89289,-33.39981 m -0.52935,19.45365 c -12.25242,-29.94246 -29.74456,-59.34179 -53.74755,-81.8728 m 11.94932,20.29448 c -8.71373,-10.26924 -18.05966,-19.65867 -28.08325,-28.04841 -8.78217,-7.35069 -18.14913,-13.92383 -28.00841,-19.62546 m 20.47792,16.55728 c -13.68272,-8.6184 -29.206,-16.45338 -45.40336,-22.40652 -15.39235,-5.65725 -31.3808,-9.61158 -47.06045,-10.97332 m 32.67823,-4.97737 c -15.90785,-3.74418 -32.53324,-3.89187 -48.72979,-0.48175 -10.26441,2.16112 -20.27306,5.73116 -29.67887,10.45443 m 19.5838,-8.47675 c -22.91046,6.42838 -45.92133,18.5819 -63.96029,35.85354 -3.0778,2.94688 -6.0089,6.04087 -8.775,9.27168 m 12.13475,-10.75024 c -2.61662,2.0637 -5.1708,4.21346 -7.65565,6.44308 -19.29402,17.31225 -34.32793,39.36722 -43.425,61.5104 m 12.90202,-16.99893 c -4.35047,9.90828 -7.7213,19.72855 -10.01524,29.36457 -3.15972,11.91028 -6.4371,23.15549 -9.87529,33.96553 m 3.38251,-10.97908 c -3.71259,15.10659 -7.29429,30.04662 -10.94439,45.07863 1.78608,-15.74151 0.83055,-31.66471 -2.88054,-46.7105 m 7.21765,28.16605 c -0.80912,-16.25068 -3.38721,-31.82023 -7.86472,-46.55617 -3.33165,-10.96479 -7.71514,-21.46869 -13.20542,-31.45076 m 6.4406,12.5113 c -6.8367,-16.94636 -16.42564,-32.34226 -28.2645,-45.56436 -9.35917,-10.45269 -20.03472,-19.52494 -31.48031,-27.20128 m 24.87542,28.95328 c -20.93743,-22.63883 -49.66534,-39.57528 -76.82006,-46.25817 m 22.64363,1.1152 c -11.15821,-4.48726 -22.96463,-7.63548 -35.12429,-9.33555 -11.5091,-1.60911 -23.31266,-1.9279 -35.17188,-1.02189 m 22.58955,4.93414 c -30.25803,-0.73307 -60.19572,5.48132 -88.85197,18.51178 -2.10732,0.95822 -4.20708,1.95312 -6.2995,2.98394 m 30.30498,-8.11299 c -6.45343,2.05961 -12.75206,4.58314 -18.87955,7.52897 -21.77783,10.46982 -41.32299,26.24964 -58.667035,44.55134 m 16.513835,-19.23793 c -17.783865,15.94535 -33.310195,36.18062 -45.035942,58.63772 m 7.514798,-17.57045 c -3.296585,5.55528 -6.177482,11.32673 -8.633138,17.28383 -7.589132,18.41022 -11.109307,38.52729 -10.976549,59.26064 m -2.87624,-23.25889 c -4.931435,26.12157 -3.723832,55.08853 3.452344,83.1327 0.31632,1.23617 0.643634,2.46979 0.9817,3.70076 m -3.916731,-21.72608 c 0.894705,5.97483 2.170033,11.89154 3.818502,17.72467 5.971381,21.1298 16.63529,40.94373 30.262594,59.53256 M 58.656117,696.02629 c 9.843997,19.86777 24.605293,40.57488 40.86398,60.26992 1.333623,1.6155 2.677503,3.22535 4.030113,4.82918 m -8.242744,-12.62058 c 2.425686,3.16186 4.930514,6.27736 7.500754,9.34909 17.39423,20.78805 37.80833,39.79438 57.97821,59.48172 m -26.93471,-21.80695 c 14.08162,14.24123 29.65582,26.67342 45.29022,38.53817 9.25333,7.02225 18.52581,13.84591 27.63918,20.61778 m -15.81905,-15.56733 c 25.94008,21.59553 46.67788,42.53644 66.03794,62.73896 m -11.38253,-13.59554 c 18.88148,18.62489 36.87079,37.36644 54.12849,57.75232 M 285.031,926.74655 c 7.92344,9.06294 15.90279,18.11439 23.71927,27.25211 12.3974,14.49296 24.37477,29.19192 35.13749,44.37202 m -18.15404,-15.00135 c 14.34059,19.26597 29.95567,36.03617 45.96653,51.94247 4.4669,-7.1829 9.15276,-14.4263 14.03043,-21.6782 m -9.502,21.2347 c 0.76519,1.0822 1.52282,2.1641 2.27301,3.2458 15.1154,-23.8608 29.37317,-47.46191 43.91084,-68.64801 M 412.36137,988.183 c 16.25016,-21.94569 34.60967,-45.26165 52.82708,-67.74394 m -15.40369,23.35897 c 14.90512,-16.08884 31.48292,-33.5101 48.71075,-51.40167 2.06104,-2.14044 4.13004,-4.28648 6.20561,-6.44027 m -11.15707,6.44508 c 2.24207,-2.03489 4.53205,-4.03459 6.86651,-5.99805 17.51261,-14.72945 37.48872,-27.40517 57.70294,-38.83854 m -18.64025,11.79003 c 22.93437,-17.30238 46.55984,-34.7489 69.95035,-54.73217 1.53221,-1.30902 3.06435,-2.63041 4.59588,-3.96449 m -18.74471,10.2259 c 4.65256,-3.89792 9.39309,-7.8332 14.14061,-11.79731 14.23125,-11.8829 28.80774,-24.32708 41.87376,-37.25363 m -15.91132,20.61677 c 18.53071,-19.99294 36.48044,-40.48596 51.40824,-64.42225 m -16.2621,18.96518 c 6.34578,-10.3034 12.09079,-20.97481 16.92216,-32.16098 5.02027,-11.62354 8.96984,-23.71388 11.70383,-36.14974 m -1.76783,16.3853 c 7.78098,-25.72713 11.73344,-53.92841 11.36286,-83.60536 m -9.46939,11.47151 c 0.38337,-16.08454 -1.16583,-31.59979 -4.49142,-46.17155 -1.61624,-7.08185 -3.65055,-13.93284 -6.05182,-20.51704 m 14.13011,18.51896 c -6.49165,-24.28602 -18.32433,-47.05785 -33.07323,-64.77797 m 2.58523,8.31894 c -11.12489,-17.16345 -24.52196,-32.2562 -39.57257,-44.52097 -2.9805,-2.42882 -6.03358,-4.74507 -9.14917,-6.94245 m 4.28363,8.03155 c -0.97834,-0.88844 -1.96964,-1.76284 -2.97351,-2.62306 -17.15985,-14.70445 -38.2282,-25.20223 -60.26901,-30.76777 -5.66993,-1.43172 -11.40316,-2.53654 -17.14824,-3.30144 m 28.74283,14.34082 c -2.17624,-0.71058 -4.38334,-1.38732 -6.61824,-2.02762 -21.65138,-6.20308 -45.85431,-8.97206 -69.99491,-6.02328 -5.15911,0.63019 -10.2933,1.51825 -15.36909,2.66274 m 30.99543,-18.16439 c -3.14288,0.21502 -6.3086,0.5881 -9.48704,1.12134 -20.49649,3.43868 -41.16192,13.46629 -58.87961,28.59108 m 20.94083,1.56171 c -11.06112,6.0161 -21.77422,13.45219 -31.60916,22.08363 -10.94262,9.60358 -20.77408,20.66574 -29.02282,32.59362 m -1.00844,-21.61395 c -11.99028,16.02372 -20.06768,36.36115 -22.41589,58.22332 -0.93967,7.17236 -1.76958,14.40196 -2.4605,21.65377 m 10.98187,-21.87973 c -0.0215,0.11557 -0.0429,0.23117 -0.0641,0.34681 -4.71065,22.55572 -9.64187,44.98983 -14.10608,67.36064 0.96741,-6.07631 1.59308,-12.19722 1.90213,-18.32321 m 0.0515,8.6227 c -0.41159,1.60409 -0.82588,3.21213 -1.24318,4.8241 2.27524,-22.69138 -1.33578,-45.19695 -10.9892,-65.52695 -0.5829,-1.22759 -1.18783,-2.44724 -1.81481,-3.65851 m 1.18969,21.45914 c -0.95838,-4.513 -2.1297,-8.99502 -3.50358,-13.42584 -6.05808,-19.53749 -16.05397,-38.07777 -29.09675,-53.88493 m 19.63619,13.2826 c -4.8393,-6.77597 -10.14044,-13.21361 -15.9367,-19.23783 -17.29378,-17.9739 -38.7321,-32.20855 -63.75619,-42.13713 M 671.45721,749.50767 715.8102,634.45247 M 368.77693,653.49491 376.67039,545.9555 M 511.2169,417.95676 416.52041,464.69912 M 59.600954,504.58463 29.661316,619.27167 M 408.81488,972.91893 531.09546,855.49532"
             inkscape:connector-curvature="0" /><flowRoot
             style="font-style:normal;font-weight:normal;font-size:40px;line-height:125%;font-family:Sans;letter-spacing:0px;word-spacing:0px;fill:#000000;fill-opacity:1;stroke:none"
             id="flowRoot3884"
             xml:space="preserve"><flowRegion
               id="flowRegion3886"><rect
                 y="72.514214"
                 x="119.198"
                 height="191.92899"
                 width="478.81232"
                 id="rect3888" /></flowRegion><flowPara
               id="flowPara3890" /></flowRoot></g><path
           inkscape:connector-curvature="0"
           id="path26307"
           style="fill:#62a654;fill-opacity:0.99803922;fill-rule:nonzero;stroke:none"
           d="m 353.28582,384.43842 c -0.669,-0.41 -1.039,-1.125 -1.039,-1.855 0,-0.381 0.099,-0.764 0.307,-1.114 0.529,-0.89 1.598,-1.265 2.546,-0.953 l 0,5.036 c -1.189,-0.731 -1.814,-1.114 -1.814,-1.114" /><path
           inkscape:connector-curvature="0"
           id="path26309"
           style="fill:#62a654;fill-opacity:0.99803922;fill-rule:nonzero;stroke:none"
           d="m 322.25182,403.30742 c -0.672,-0.41 -1.044,-1.127 -1.044,-1.861 0,-0.377 0.098,-0.76 0.305,-1.107 0.608,-1.026 1.928,-1.371 2.96,-0.776 0,0 12.58,7.262 30.627,17.682 4.12897,4.32054 3.37698,5.11407 0,6.08 -20.113,-12.258 -32.848,-20.018 -32.848,-20.018"
           sodipodi:nodetypes="csccccc" /><path
           inkscape:connector-curvature="0"
           id="path26311"
           style="fill:#62a654;fill-opacity:0.99803922;fill-rule:nonzero;stroke:none"
           d="m 320.95882,394.77842 c -0.676,-0.408 -1.051,-1.127 -1.051,-1.865 0,-0.375 0.097,-0.758 0.303,-1.104 0.606,-1.029 1.929,-1.375 2.962,-0.779 0,0 12.272,7.086 31.927,18.434 6.28168,3.23534 7e-5,3.95801 0,5.937 -20.027,-12.098 -34.141,-20.623 -34.141,-20.623"
           sodipodi:nodetypes="csccccc" /><path
           inkscape:connector-curvature="0"
           id="path26313"
           style="fill:#62a654;fill-opacity:0.99803922;fill-rule:nonzero;stroke:none"
           d="m 330.60182,389.60842 c -0.668,-0.412 -1.037,-1.123 -1.037,-1.855 0,-0.379 0.1,-0.764 0.308,-1.114 0.609,-1.021 1.927,-1.365 2.958,-0.769 0,0 8.626,4.98 22.269,12.855 l 0,5.957 c -15.242,-9.379 -24.498,-15.074 -24.498,-15.074" /><path
           inkscape:connector-curvature="0"
           id="path26315"
           style="fill:#62a654;fill-opacity:0.99803922;fill-rule:nonzero;stroke:none"
           d="m 310.83982,406.38542 c -0.677,-0.408 -1.053,-1.126 -1.053,-1.865 0,-0.377 0.097,-0.758 0.302,-1.103 0.607,-1.03 1.929,-1.377 2.962,-0.782 0,0 16.585,9.577 42.049,24.278 5.17195,5.80375 3.33821,5.01649 0,6.127 -24.515,-14.764 -44.26,-26.655 -44.26,-26.655"
           sodipodi:nodetypes="csccccc" /><path
           inkscape:connector-curvature="0"
           id="path26317"
           style="fill:#62a654;fill-opacity:0.99803922;fill-rule:nonzero;stroke:none"
           d="m 337.48882,385.39742 c -0.674,-0.408 -1.047,-1.125 -1.047,-1.861 0,-0.377 0.099,-0.76 0.304,-1.108 0.607,-1.025 1.928,-1.371 2.961,-0.777 0,0 5.645,3.26 15.393,8.889 l 0,5.545 c -10.891,-6.61 -17.611,-10.688 -17.611,-10.688" /><path
           d="m 266.34829,368.24982 c -0.677,-0.408 -1.053,-1.126 -1.053,-1.865 0,-0.377 0.097,-0.758 0.302,-1.103 0.607,-1.03 1.929,-1.377 2.962,-0.782 0,0 16.585,9.577 42.049,24.278 3.05966,3.35362 0.80464,4.42951 0,6.127 -24.515,-14.764 -44.26,-26.655 -44.26,-26.655"
           style="fill:#000000;fill-opacity:1;fill-rule:nonzero;stroke:none"
           id="path26319"
           inkscape:connector-curvature="0"
           sodipodi:nodetypes="csccccc" /><g
           transform="scale(0.67311217,-1.4856365)"
           style="font-style:normal;font-weight:normal;font-size:51.54763031px;line-height:125%;font-family:sans-serif;letter-spacing:0px;word-spacing:0px;fill:#000000;fill-opacity:1;stroke:#dfc912;stroke-width:1.48067844px;stroke-linecap:butt;stroke-linejoin:miter;stroke-opacity:1"
           id="text26323"><path
             d="m 69.024063,-2.3283247 c -2.771027,0 -4.156542,-3.7309148 -4.156542,-6.7017192 0,-0.6474836 0.08769,-1.3520971 0.263073,-2.1138411 l 8.147211,2.0799234 -1.04279,-25.8650994 c -0.94706,0 -1.666125,-0.457046 -2.157193,-1.37114 -0.526144,-0.95218 -0.789216,-2.113842 -0.789216,-3.484982 0,-2.856542 0.19292,-5.198907 0.578759,-7.027094 l 0.315687,-1.371141 c 4.103927,-0.761744 7.558944,-1.142617 10.365048,-1.142617 1.262745,0 2.244879,0.476091 2.946414,1.428272 0.736605,0.95218 1.15752,1.980535 1.262743,3.085066 0.105224,1.104529 0.157841,1.999579 0.157841,2.685149 0,1.980536 -0.140305,3.713505 -0.420915,5.198908 l -0.263074,1.42827 c -0.806748,0 -1.403049,0.01904 -1.788892,0.05713 l -1.210129,24.737657 c -0.140306,3.1612404 -0.683989,5.3893442 -1.631049,6.6843101 -0.94706,1.294966 -8.191787,1.6929464 -10.576976,1.6929442 z"
             style="font-style:normal;font-variant:normal;font-weight:normal;font-stretch:normal;font-family:'Chela One';-inkscape-font-specification:'Chela One';letter-spacing:0px;word-spacing:0px;stroke:#d84345;stroke-width:1.57485271px;stroke-opacity:1"
             id="path26328"
             inkscape:connector-curvature="0"
             sodipodi:nodetypes="ssccccsccscssccccss" /><path
             d="m 86.878274,-28.758929 q 0,-2.742282 0.420914,-5.370301 0.420925,-2.685149 0.84184,-3.942028 l 0.420914,-1.31401 -0.894446,-4.341943 q 0.368298,-1.199749 1.788892,-2.342365 1.578435,-1.199749 4.893146,-1.199749 3.31471,0 4.63007,1.199749 1.367976,1.199747 1.367976,3.484981 0,1.199748 -0.894444,5.998739 -0.894446,4.798991 -0.894446,10.169292 0,5.3703 0.999669,8.398234 1.052291,3.027936 2.893791,3.027936 1.89413,0 2.99903,-2.913675 1.15751,-2.913673 1.15751,-8.569626 0,-5.655954 -0.78921,-10.569208 -0.73661,-4.970384 -1.52582,-7.141355 l -0.7366,-2.170972 q 0,-0.171393 0.3683,-0.685571 0.42092,-0.514178 0.89445,-0.856962 1.26274,-0.799832 3.31471,-0.799832 8.68138,0 8.68138,16.91073 0,7.312749 -1.52582,12.511656 -1.52582,5.141777 -5.15621,8.226843 -3.57779,3.0279354 -9.15492,3.0279354 -7.313405,0 -10.733349,-5.5988234 -3.367327,-5.598824 -3.367327,-15.139675 z"
             style="font-style:normal;font-variant:normal;font-weight:normal;font-stretch:normal;font-family:'Chela One';-inkscape-font-specification:'Chela One';letter-spacing:0px;word-spacing:0px;stroke:#d84345;stroke-width:1.57485271px;stroke-opacity:1"
             id="path26330"
             inkscape:connector-curvature="0" /><path
             d="m 139.51986,-47.612109 q 1.52582,-1.713926 4.89314,-1.713926 3.41995,0 4.84053,1.599663 1.4206,1.599664 1.4206,5.827348 0,4.170552 -0.89445,15.48246 -0.84183,11.311907 -0.84183,16.225161 -2.10458,1.7710558 -5.94543,1.7710558 -1.78889,0 -2.42026,-0.7427008 -4.78793,-1.028355 -10.41768,-22.2239 -0.36829,11.883216 -0.36829,21.6525918 -0.99967,1.314009 -4.78792,1.314009 -3.73562,0 -3.89347,-3.4278508 l -1.68366,-34.507032 q 3.84086,-2.513758 6.8925,-2.513758 1.52581,0 2.42026,0.571308 0.73661,-0.228523 1.36798,-0.228523 2.26242,0 3.31471,2.456627 1.05228,2.399495 2.47288,8.341104 1.42058,5.941607 1.78889,7.541271 0.42091,1.542533 1.1049,4.341945 0.68399,2.799412 1.36797,5.427431 0.10523,-4.970384 0.10523,-8.683889 0,-10.340684 -0.47353,-15.482461 l -0.26307,-3.027934 z"
             style="font-style:normal;font-variant:normal;font-weight:normal;font-stretch:normal;font-family:'Chela One';-inkscape-font-specification:'Chela One';letter-spacing:0px;word-spacing:0px;stroke:#d84345;stroke-width:1.57485271px;stroke-opacity:1"
             id="path26332"
             inkscape:connector-curvature="0" /><path
             d="m 172.51242,-35.157585 -7.41865,-0.171392 q -0.36829,2.456626 -0.36829,6.170131 l 0,0.399917 q 9.4706,-0.171393 10.41766,-0.171393 0.26307,1.428272 0.26307,2.513758 0,3.713505 -3.15687,3.713505 l -7.31341,0 q 0.42092,4.170552 2.47288,4.856122 0.42092,0.171392 1.05229,0.171392 2.20981,0 6.41896,-1.828187 1.4206,0.742701 1.4206,3.484982 0,2.68515 -2.42027,5.198908 -2.36765,2.4566261 -7.89217,2.4566261 -5.26144,0 -8.62877,-3.1421971 -3.78824,-3.484981 -3.78824,-11.940348 0,-6.512917 2.31504,-11.826085 l -1.31537,0.114261 q -1.36797,-1.37114 -1.36797,-5.541692 0,-8.455365 5.36667,-8.455365 0.26307,0 1.68367,0 1.42059,0 5.94543,0.571308 4.57746,0.514178 9.52321,0.514178 0.63138,1.713926 0.63138,5.484561 0,3.713505 -0.89445,5.598823 -0.89445,1.828187 -2.9464,1.828187 z"
             style="font-style:normal;font-variant:normal;font-weight:normal;font-stretch:normal;font-family:'Chela One';-inkscape-font-specification:'Chela One';letter-spacing:0px;word-spacing:0px;stroke:#d84345;stroke-width:1.57485271px;stroke-opacity:1"
             id="path26334"
             inkscape:connector-curvature="0" /><path
             d="m 198.86897,-47.497848 q 0.57876,1.199748 0.57876,5.256038 0,3.99916 -0.89444,5.884478 -0.84184,1.828187 -2.89379,1.828187 l -2.31505,0 q 0.15784,16.225161 1.21014,24.509134 -2.57811,1.6567951 -6.41897,1.6567951 -2.20981,0 -3.68301,-0.9712248 -1.42059,-0.9712243 -1.36798,-2.5137573 0,-8.341104 0.84183,-22.966601 -3.41993,0.114261 -5.1036,0.285654 -1.36797,-1.37114 -1.36797,-5.541692 0,-4.227684 1.31536,-6.341525 1.31536,-2.170972 4.15654,-2.170972 0.26308,0 1.68366,0 3.57779,0 11.68042,0.799832 l 2.5781,0.285654 z"
             style="font-style:normal;font-variant:normal;font-weight:normal;font-stretch:normal;font-family:'Chela One';-inkscape-font-specification:'Chela One';letter-spacing:0px;word-spacing:0px;stroke:#d84345;stroke-width:1.57485271px;stroke-opacity:1"
             id="path26336"
             inkscape:connector-curvature="0" /><path
             d="m 219.98874,-35.157585 -7.41864,-0.171392 q -0.3683,2.456626 -0.3683,6.170131 l 0,0.399917 q 9.4706,-0.171393 10.41766,-0.171393 0.26308,1.428272 0.26308,2.513758 0,3.713505 -3.15687,3.713505 l -7.31341,0 q 0.42091,4.170552 2.47288,4.856122 0.42092,0.171392 1.05229,0.171392 2.2098,0 6.41896,-1.828187 1.42059,0.742701 1.42059,3.484982 0,2.68515 -2.42027,5.198908 -2.36765,2.4566261 -7.89216,2.4566261 -5.26145,0 -8.62877,-3.1421971 -3.78825,-3.484981 -3.78825,-11.940348 0,-6.512917 2.31505,-11.826085 l -1.31538,0.114261 q -1.36796,-1.37114 -1.36796,-5.541692 0,-8.455365 5.36666,-8.455365 0.26308,0 1.68367,0 1.42059,0 5.94543,0.571308 4.57746,0.514178 9.52322,0.514178 0.63137,1.713926 0.63137,5.484561 0,3.713505 -0.89444,5.598823 -0.89445,1.828187 -2.94641,1.828187 z"
             style="font-style:normal;font-variant:normal;font-weight:normal;font-stretch:normal;font-family:'Chela One';-inkscape-font-specification:'Chela One';letter-spacing:0px;word-spacing:0px;stroke:#d84345;stroke-width:1.57485271px;stroke-opacity:1"
             id="path26338"
             inkscape:connector-curvature="0" /><path
             d="m 244.24072,-35.157585 -7.41864,-0.171392 q -0.3683,2.456626 -0.3683,6.170131 l 0,0.399917 q 9.4706,-0.171393 10.41767,-0.171393 0.26306,1.428272 0.26306,2.513758 0,3.713505 -3.15686,3.713505 l -7.31341,0 q 0.42092,4.170552 2.47287,4.856122 0.42093,0.171392 1.0523,0.171392 2.20981,0 6.41896,-1.828187 1.42059,0.742701 1.42059,3.484982 0,2.68515 -2.42027,5.198908 -2.36765,2.4566261 -7.89216,2.4566261 -5.26145,0 -8.62877,-3.1421971 -3.78824,-3.484981 -3.78824,-11.940348 0,-6.512917 2.31503,-11.826085 l -1.31536,0.114261 q -1.36798,-1.37114 -1.36798,-5.541692 0,-8.455365 5.36667,-8.455365 0.26308,0 1.68367,0 1.42059,0 5.94543,0.571308 4.57746,0.514178 9.52322,0.514178 0.63137,1.713926 0.63137,5.484561 0,3.713505 -0.89444,5.598823 -0.89445,1.828187 -2.94641,1.828187 z"
             style="font-style:normal;font-variant:normal;font-weight:normal;font-stretch:normal;font-family:'Chela One';-inkscape-font-specification:'Chela One';letter-spacing:0px;word-spacing:0px;stroke:#d84345;stroke-width:1.57485271px;stroke-opacity:1"
             id="path26340"
             inkscape:connector-curvature="0" /><path
             d="m 270.43944,-47.612109 q 1.52582,-1.713926 4.89314,-1.713926 3.41994,0 4.84053,1.599663 1.42059,1.599664 1.42059,5.827348 0,4.170552 -0.89445,15.48246 -0.84183,11.311907 -0.84183,16.225161 -2.10457,1.7710558 -5.94543,1.7710558 -1.78889,0 -2.42027,-0.7427008 -4.78792,-1.028355 -10.41766,-22.2239 -0.36831,11.883216 -0.36831,21.6525918 -0.99967,1.314009 -4.78791,1.314009 -3.73562,0 -3.89346,-3.4278508 l -1.68367,-34.507032 q 3.84086,-2.513758 6.89249,-2.513758 1.52582,0 2.42027,0.571308 0.7366,-0.228523 1.36798,-0.228523 2.26242,0 3.31471,2.456627 1.05228,2.399495 2.47288,8.341104 1.42059,5.941607 1.78889,7.541271 0.42091,1.542533 1.1049,4.341945 0.68399,2.799412 1.36798,5.427431 0.10522,-4.970384 0.10522,-8.683889 0,-10.340684 -0.47353,-15.482461 l -0.26306,-3.027934 z"
             style="font-style:normal;font-variant:normal;font-weight:normal;font-stretch:normal;font-family:'Chela One';-inkscape-font-specification:'Chela One';letter-spacing:0px;word-spacing:0px;stroke:#d84345;stroke-width:1.57485271px;stroke-opacity:1"
             id="path26342"
             inkscape:connector-curvature="0" /><path
             d="m 305.53657,-47.497848 q 0.57875,1.199748 0.57875,5.256038 0,3.99916 -0.89444,5.884478 -0.84183,1.828187 -2.8938,1.828187 l -2.31503,0 q 0.15784,16.225161 1.21013,24.509134 -2.57811,1.6567951 -6.41896,1.6567951 -2.20981,0 -3.68301,-0.9712248 -1.4206,-0.9712243 -1.36798,-2.5137573 0,-8.341104 0.84183,-22.966601 -3.41993,0.114261 -5.1036,0.285654 -1.36798,-1.37114 -1.36798,-5.541692 0,-4.227684 1.31536,-6.341525 1.31537,-2.170972 4.15655,-2.170972 0.26307,0 1.68366,0 3.57778,0 11.68041,0.799832 l 2.57811,0.285654 z"
             style="font-style:normal;font-variant:normal;font-weight:normal;font-stretch:normal;font-family:'Chela One';-inkscape-font-specification:'Chela One';letter-spacing:0px;word-spacing:0px;stroke:#d84345;stroke-width:1.57485271px;stroke-opacity:1"
             id="path26344"
             inkscape:connector-curvature="0" /><path
             d="m 326.70896,-47.726372 q 2.73595,-1.599663 5.57713,-1.599663 2.84118,0 3.9987,1.599663 1.15752,1.542533 1.15752,6.170133 0,2.170971 -0.89445,15.53959 -0.84183,13.368619 -0.84183,15.825246 -2.26242,1.7710558 -5.57713,1.7710558 -3.31471,0 -3.36733,-2.9708048 0.10523,-3.370719 0.21046,-7.941187 l -7.52386,0 q -0.0526,2.913673 -0.0526,9.5979828 -1.78889,1.314009 -5.4719,1.314009 -1.63105,0 -2.63073,-0.9140935 -0.99967,-0.9140933 -1.10491,-2.5137573 l -1.68365,-34.507032 q 3.84085,-2.513758 6.5768,-2.513758 2.78857,0 3.84086,1.656794 1.1049,1.656795 1.1049,6.341525 0,1.199747 -0.21046,7.141356 -0.21045,5.941608 -0.26307,8.169711 1.36798,-0.571308 2.42026,-0.628439 1.0523,-0.05713 5.10361,-0.171393 0,-13.768535 -0.26307,-19.195965 l -0.10523,-2.170973 z"
             style="font-style:normal;font-variant:normal;font-weight:normal;font-stretch:normal;font-family:'Chela One';-inkscape-font-specification:'Chela One';letter-spacing:0px;word-spacing:0px;stroke:#d84345;stroke-width:1.57485271px;stroke-opacity:1"
             id="path26346"
             inkscape:connector-curvature="0" /><path
             d="m 374.05376,-27.159266 q 0.31569,3.027936 0.31569,4.170552 0,1.142617 -0.73661,2.513758 -0.7366,1.37114 -2.47288,1.37114 l -6.31374,0 q 0.15785,4.970384 0.57877,7.541272 -0.94707,1.9995794 -4.20916,2.8565427 -1.31536,0.3427854 -3.15687,0.3427854 -1.78889,0 -3.26209,-1.3711403 -1.4206,-1.4282718 -1.31536,-3.0850658 0,-9.026675 0.73659,-23.137995 -1.15751,-0.228522 -1.31536,-0.342784 -0.68399,-1.885318 -0.68399,-5.027515 0,-3.199327 1.57844,-5.256038 1.57843,-2.056711 4.41961,-2.056711 0.31569,0 1.1049,0 0.78923,0 5.52452,0.285655 4.73531,0.285654 9.94414,0.285654 0.57876,1.713926 0.57876,5.484561 0,3.770636 -1.31536,5.884478 -1.31536,2.113841 -4.31439,2.113841 -2.99902,0 -5.10361,-0.114262 l 0,7.712665 q 4.84054,-0.171393 9.418,-0.171393 z"
             style="font-style:normal;font-variant:normal;font-weight:normal;font-stretch:normal;font-family:'Chela One';-inkscape-font-specification:'Chela One';letter-spacing:0px;word-spacing:0px;stroke:#dfc912;stroke-width:1.57485271px;stroke-opacity:1"
             id="path26348"
             inkscape:connector-curvature="0" /><path
             d="m 382.7072,-48.868988 q 1.78889,0 3.05163,0.856962 1.31536,0.856964 2.26243,3.31359 2.63072,-4.513337 7.99739,-4.513337 4.15654,0 6.73465,3.37072 2.57811,3.370719 2.57811,9.540852 0,4.456206 -1.36797,8.283973 -1.31537,3.827766 -3.78825,6.227263 0.31569,0.342784 1.89413,3.085065 1.63104,2.742281 3.68301,4.856122 0,0.628439 -0.52615,1.771057 -0.52614,1.085486 -1.15751,1.828187 -0.63138,0.6855694 -1.94674,1.3140088 -1.31536,0.5713093 -2.99902,0.5713093 -3.41995,0 -4.99838,-3.1993281 l -3.15686,-7.084225 q -0.63138,-0.05713 -1.84151,-0.285654 -0.52615,5.827346 -1.89413,8.226842 -1.36796,2.3423651 -3.9987,2.3423651 -1.36796,0 -2.73594,-0.5713093 -1.36798,-0.6284394 -2.05197,-1.2568778 l -0.68399,-0.571309 q 0.52615,-2.513757 0.52615,-11.654693 0,-13.768534 -0.42091,-22.109638 l -0.15785,-2.456627 q 1.57843,-1.885318 4.99838,-1.885318 z m 6.68203,11.883216 q 0.15784,2.399496 0.15784,6.284393 0,3.827768 -0.15784,7.31275 5.89282,-0.914094 5.89282,-8.341104 0,-3.427852 -1.31536,-4.341945 -1.31536,-0.914094 -4.57746,-0.914094 z"
             style="font-style:normal;font-variant:normal;font-weight:normal;font-stretch:normal;font-family:'Chela One';-inkscape-font-specification:'Chela One';letter-spacing:0px;word-spacing:0px;stroke:#dfc912;stroke-width:1.57485271px;stroke-opacity:1"
             id="path26350"
             inkscape:connector-curvature="0" /><path
             d="m 426.13056,-35.157585 -7.41864,-0.171392 q -0.3683,2.456626 -0.3683,6.170131 l 0,0.399917 q 9.4706,-0.171393 10.41766,-0.171393 0.26308,1.428272 0.26308,2.513758 0,3.713505 -3.15687,3.713505 l -7.31341,0 q 0.42091,4.170552 2.47288,4.856122 0.42092,0.171392 1.05229,0.171392 2.2098,0 6.41896,-1.828187 1.42059,0.742701 1.42059,3.484982 0,2.68515 -2.42026,5.198908 -2.36766,2.4566261 -7.89217,2.4566261 -5.26145,0 -8.62877,-3.1421971 -3.78825,-3.484981 -3.78825,-11.940348 0,-6.512917 2.31505,-11.826085 l -1.31537,0.114261 q -1.36797,-1.37114 -1.36797,-5.541692 0,-8.455365 5.36667,-8.455365 0.26307,0 1.68366,0 1.4206,0 5.94543,0.571308 4.57747,0.514178 9.52322,0.514178 0.63137,1.713926 0.63137,5.484561 0,3.713505 -0.89444,5.598823 -0.89445,1.828187 -2.94641,1.828187 z"
             style="font-style:normal;font-variant:normal;font-weight:normal;font-stretch:normal;font-family:'Chela One';-inkscape-font-specification:'Chela One';letter-spacing:0px;word-spacing:0px;stroke:#dfc912;stroke-width:1.57485271px;stroke-opacity:1"
             id="path26352"
             inkscape:connector-curvature="0" /><path
             d="m 450.38252,-35.157585 -7.41864,-0.171392 q -0.3683,2.456626 -0.3683,6.170131 l 0,0.399917 q 9.4706,-0.171393 10.41767,-0.171393 0.26307,1.428272 0.26307,2.513758 0,3.713505 -3.15687,3.713505 l -7.31341,0 q 0.42092,4.170552 2.47288,4.856122 0.42092,0.171392 1.05229,0.171392 2.2098,0 6.41896,-1.828187 1.4206,0.742701 1.4206,3.484982 0,2.68515 -2.42027,5.198908 -2.36765,2.4566261 -7.89217,2.4566261 -5.26145,0 -8.62877,-3.1421971 -3.78824,-3.484981 -3.78824,-11.940348 0,-6.512917 2.31504,-11.826085 l -1.31536,0.114261 q -1.36798,-1.37114 -1.36798,-5.541692 0,-8.455365 5.36667,-8.455365 0.26308,0 1.68366,0 1.4206,0 5.94544,0.571308 4.57746,0.514178 9.52322,0.514178 0.63137,1.713926 0.63137,5.484561 0,3.713505 -0.89444,5.598823 -0.89445,1.828187 -2.94642,1.828187 z"
             style="font-style:normal;font-variant:normal;font-weight:normal;font-stretch:normal;font-family:'Chela One';-inkscape-font-specification:'Chela One';letter-spacing:0px;word-spacing:0px;stroke:#dfc912;stroke-width:1.57485271px;stroke-opacity:1"
             id="path26354"
             inkscape:connector-curvature="0" /><path
             d="m 456.21942,-46.98367 q 1.57844,-1.885318 5.051,-1.885318 3.52517,0 4.99837,3.599244 2.94641,-3.942029 6.73465,-3.942029 5.8402,0 9.15492,4.856122 3.31471,4.798992 3.31471,14.511236 0,9.655113 -4.05131,15.425329 -4.05132,5.770216 -9.99675,5.770216 -3.26209,0 -5.68237,-2.056711 -1.42058,2.3423651 -3.9987,2.3423651 -1.36797,0 -2.73594,-0.5713093 -1.36798,-0.6284394 -2.05197,-1.2568778 l -0.68399,-0.571309 q 0.52615,-2.513757 0.52615,-11.654693 0,-13.768534 -0.42091,-22.109638 l -0.15786,-2.456627 z m 14.04807,31.936144 q 2.15719,0 3.6304,-2.856543 1.52582,-2.856541 1.52582,-8.341103 0,-9.597982 -7.57649,-11.197646 0.21046,2.285233 0.21046,9.140936 0,6.855701 -0.68399,11.883216 1.52582,1.37114 2.8938,1.37114 z"
             style="font-style:normal;font-variant:normal;font-weight:normal;font-stretch:normal;font-family:'Chela One';-inkscape-font-specification:'Chela One';letter-spacing:0px;word-spacing:0px;stroke:#dfc912;stroke-width:1.57485271px;stroke-opacity:1"
             id="path26356"
             inkscape:connector-curvature="0" /><path
             d="m 487.24141,-25.959517 q 0,-4.798992 1.05229,-8.569628 1.05229,-3.827767 2.78857,-6.05587 3.31471,-4.341945 7.05033,-5.313169 2.1572,-2.970804 6.41896,-2.970804 5.84021,0 9.15492,4.856122 3.31471,4.856122 3.31471,14.568366 0,9.655114 -4.47223,15.425329 -4.47222,5.7130852 -11.20687,5.7130852 -6.68204,0 -10.41766,-4.4562062 -3.68302,-4.456206 -3.68302,-13.197225 z m 15.46865,10.969123 q 1.99935,0 3.10426,-2.913675 1.15752,-2.913673 1.15752,-8.398234 0,-5.484562 -2.20981,-8.74102 -2.1572,-3.256459 -5.15622,-4.798992 -1.31536,5.484563 -1.31536,11.826087 0,13.025834 4.41961,13.025834 z"
             style="font-style:normal;font-variant:normal;font-weight:normal;font-stretch:normal;font-family:'Chela One';-inkscape-font-specification:'Chela One';letter-spacing:0px;word-spacing:0px;stroke:#dfc912;stroke-width:1.57485271px;stroke-opacity:1"
             id="path26358"
             inkscape:connector-curvature="0" /><path
             d="m 521.36271,-47.954895 q 0.68399,-0.342785 1.89412,-0.628439 1.26275,-0.285654 2.73595,-0.285654 1.52582,0 2.20981,0.68557 0.84183,-0.342785 2.26242,-0.342785 2.99903,0 3.94609,3.142196 1.05228,3.656375 3.52516,22.338163 2.84119,-17.767694 3.78824,-21.252677 0.94707,-3.542112 2.5255,-4.170552 1.05229,-0.342785 2.57811,-0.05713 1.36797,-0.342785 2.89379,-0.342785 3.89348,0 4.99838,1.428271 1.15752,1.428271 1.15752,4.913253 0,0.114261 -0.68399,13.597142 -0.68399,13.482881 -0.68399,19.4816196 -1.99935,1.0854861 -5.20883,1.0854861 -3.20948,0 -3.31471,-3.4849827 l -0.42092,-21.081282 q -3.84086,22.2239 -7.47125,22.2239 l -0.7366,0 q -1.52582,0 -2.63072,-1.656795 -2.47288,-3.542112 -5.4193,-20.967022 -0.78921,14.454105 -0.78921,23.8806956 -1.89413,1.0283549 -4.10393,1.0283549 -3.68301,0 -3.84085,-3.4278515 l -1.31537,-34.507032 q 0.15785,-0.342785 0.78922,-0.799832 0.63137,-0.514178 1.31536,-0.799832 z"
             style="font-style:normal;font-variant:normal;font-weight:normal;font-stretch:normal;font-family:'Chela One';-inkscape-font-specification:'Chela One';letter-spacing:0px;word-spacing:0px;stroke:#dfc912;stroke-width:1.57485271px;stroke-opacity:1"
             id="path26360"
             inkscape:connector-curvature="0" /><path
             d="m 570.18318,-46.98367 q 1.57844,-1.885318 5.05099,-1.885318 3.52516,0 4.99838,3.599244 2.9464,-3.942029 6.73464,-3.942029 5.84021,0 9.15492,4.856122 3.31471,4.798992 3.31471,14.511236 0,9.655113 -4.05132,15.425329 -4.0513,5.770216 -9.99674,5.770216 -3.2621,0 -5.68236,-2.056711 -1.4206,2.3423651 -3.9987,2.3423651 -1.36798,0 -2.73596,-0.5713093 -1.36797,-0.6284394 -2.05196,-1.2568778 l -0.68398,-0.571309 q 0.52614,-2.513757 0.52614,-11.654693 0,-13.768534 -0.42092,-22.109638 l -0.15784,-2.456627 z m 14.04807,31.936144 q 2.15719,0 3.63039,-2.856543 1.52581,-2.856541 1.52581,-8.341103 0,-9.597982 -7.57648,-11.197646 0.21046,2.285233 0.21046,9.140936 0,6.855701 -0.68398,11.883216 1.52582,1.37114 2.8938,1.37114 z"
             style="font-style:normal;font-variant:normal;font-weight:normal;font-stretch:normal;font-family:'Chela One';-inkscape-font-specification:'Chela One';letter-spacing:0px;word-spacing:0px;stroke:#62a654;stroke-width:1.57485271px;stroke-opacity:1"
             id="path26362"
             inkscape:connector-curvature="0" /><path
             d="m 628.98557,-10.191403 q -0.36831,0.3999156 -1.78889,1.1426164 -1.36798,0.6855707 -3.36733,0.6855707 -4.367,0 -5.52452,-7.0842251 -1.84151,0.228523 -4.41961,0.228523 -2.5255,0 -3.20949,-0.171393 -0.68399,3.827767 -1.94673,5.4274309 -1.21014,1.5996642 -3.68301,1.5996642 -1.21014,0 -2.31504,-0.4570468 -1.1049,-0.4570467 -1.57843,-0.9140935 l -0.52615,-0.4570468 q 2.05196,-26.8515 5.78759,-32.450322 1.36798,-1.94245 2.5255,-2.399496 1.15752,-0.514178 2.15719,-0.514178 0.99968,0 1.26275,0.05713 0.26306,0 0.3683,0 l -0.21046,-1.142617 q 0.15784,-0.228523 0.42092,-0.571308 0.31569,-0.399916 1.57843,-1.028355 1.26274,-0.62844 2.94641,-0.62844 3.47255,0 5.4719,2.856542 2.05197,2.799412 3.6304,10.969123 1.63105,8.112581 3.05164,24.109218 -0.21046,0.285656 -0.63137,0.742702 z m -17.41539,-11.768955 q 1.68367,-0.228524 3.52517,-0.228524 1.84151,0 2.10458,0.05713 -1.89413,-10.397815 -3.31471,-17.596302 -1.31536,7.884057 -2.31504,17.767694 z"
             style="font-style:normal;font-variant:normal;font-weight:normal;font-stretch:normal;font-family:'Chela One';-inkscape-font-specification:'Chela One';letter-spacing:0px;word-spacing:0px;stroke:#62a654;stroke-width:1.57485271px;stroke-opacity:1"
             id="path26364"
             inkscape:connector-curvature="0" /><path
             d="m 655.00016,-36.128809 q -3.94608,12.797311 -6.99772,15.996638 0.3683,6.284393 0.89445,10.11216 -2.57812,1.6567951 -6.41898,1.6567951 -2.2098,0 -3.683,-0.9712248 -1.4732,-0.9712243 -1.4206,-2.5137573 0,-4.513338 0.21047,-8.226842 -0.89445,-0.914094 -1.36798,-2.285235 l -7.73432,-21.652591 q 0.15784,-0.571309 0.73659,-1.485402 0.57877,-0.914094 1.26275,-1.485402 1.94674,-1.656795 4.94576,-1.656795 2.31504,0 3.47256,1.885318 1.26274,2.113841 1.8415,4.913253 0.63137,2.742281 0.94706,4.570468 0.3683,1.828187 0.94706,4.970384 0.57876,3.142196 1.10491,5.655954 l 3.63039,-21.081284 q 1.47321,-1.142616 4.84054,-1.142616 2.99902,0 3.84085,1.485402 0.63137,1.085486 0.63137,3.484982 0,2.342365 -1.68366,7.769795 z"
             style="font-style:normal;font-variant:normal;font-weight:normal;font-stretch:normal;font-family:'Chela One';-inkscape-font-specification:'Chela One';letter-spacing:0px;word-spacing:0px;stroke:#62a654;stroke-width:1.57485271px;stroke-opacity:1"
             id="path26366"
             inkscape:connector-curvature="0" /></g></g></g></g></svg>